<mxfile host="Electron" agent="Mozilla/5.0 (Macintosh; Intel Mac OS X 10_15_7) AppleWebKit/537.36 (KHTML, like Gecko) draw.io/25.0.2 Chrome/128.0.6613.186 Electron/32.2.5 Safari/537.36" version="25.0.2">
  <diagram name="Page-1" id="c4acf3e9-155e-7222-9cf6-157b1a14988f">
    <mxGraphModel dx="4644" dy="2712" grid="0" gridSize="10" guides="1" tooltips="1" connect="1" arrows="1" fold="1" page="1" pageScale="1" pageWidth="3600" pageHeight="2800" background="none" math="0" shadow="0">
      <root>
        <mxCell id="0" />
        <mxCell id="1" parent="0" />
        <mxCell id="O-DQKDpTSATR4mZIGXTW-16" value="" style="rounded=0;whiteSpace=wrap;html=1;fillColor=none;" parent="1" vertex="1">
          <mxGeometry x="2382" y="260" width="730" height="330" as="geometry" />
        </mxCell>
        <mxCell id="O-DQKDpTSATR4mZIGXTW-1" value="&lt;p style=&quot;margin:0px;margin-top:4px;text-align:center;&quot;&gt;&lt;i&gt;&amp;lt;&amp;lt;Interface&amp;gt;&amp;gt;&lt;/i&gt;&lt;br&gt;&lt;b&gt;IDataExporter&lt;/b&gt;&lt;/p&gt;&lt;hr size=&quot;1&quot;&gt;&lt;p style=&quot;margin:0px;margin-left:4px;&quot;&gt;ContentType : string &amp;lt;&amp;lt;get&amp;gt;&amp;gt;&lt;/p&gt;&lt;p style=&quot;margin:0px;margin-left:4px;&quot;&gt;FileExtension : string &amp;lt;&amp;lt;get&amp;gt;&amp;gt;&lt;/p&gt;&lt;hr size=&quot;1&quot;&gt;&lt;p style=&quot;margin:0px;margin-left:4px;&quot;&gt;Export(data:IEnumerable&amp;lt;T&amp;gt;) : byte[]&lt;br&gt;&lt;/p&gt;" style="verticalAlign=top;align=left;overflow=fill;fontSize=12;fontFamily=Helvetica;html=1;rounded=0;shadow=0;comic=0;labelBackgroundColor=none;strokeWidth=1" parent="1" vertex="1">
          <mxGeometry x="2640.75" y="280" width="212.5" height="110" as="geometry" />
        </mxCell>
        <mxCell id="O-DQKDpTSATR4mZIGXTW-2" value="&lt;p style=&quot;margin:0px;margin-top:4px;text-align:center;&quot;&gt;&lt;i&gt;&amp;lt;&amp;lt;Interface&amp;gt;&amp;gt;&lt;/i&gt;&lt;br&gt;&lt;b&gt;IDataExporters&lt;/b&gt;&lt;/p&gt;&lt;hr size=&quot;1&quot;&gt;&lt;p style=&quot;margin:0px;margin-left:4px;&quot;&gt;&lt;br&gt;&lt;/p&gt;&lt;hr size=&quot;1&quot;&gt;&lt;p style=&quot;margin:0px;margin-left:4px;&quot;&gt;GetExporter(format:string) : IDataExporter&amp;lt;T&amp;gt;&lt;br&gt;&lt;/p&gt;" style="verticalAlign=top;align=left;overflow=fill;fontSize=12;fontFamily=Helvetica;html=1;rounded=0;shadow=0;comic=0;labelBackgroundColor=none;strokeWidth=1" parent="1" vertex="1">
          <mxGeometry x="3187" y="350" width="250" height="100" as="geometry" />
        </mxCell>
        <mxCell id="O-DQKDpTSATR4mZIGXTW-68" style="edgeStyle=orthogonalEdgeStyle;rounded=0;orthogonalLoop=1;jettySize=auto;html=1;" parent="1" source="O-DQKDpTSATR4mZIGXTW-3" target="O-DQKDpTSATR4mZIGXTW-1" edge="1">
          <mxGeometry relative="1" as="geometry">
            <Array as="points">
              <mxPoint x="2502" y="410" />
              <mxPoint x="2747" y="410" />
            </Array>
          </mxGeometry>
        </mxCell>
        <mxCell id="O-DQKDpTSATR4mZIGXTW-3" value="&lt;p style=&quot;margin:0px;margin-top:4px;text-align:center;&quot;&gt;&lt;b&gt;JsonDataExporter&lt;/b&gt;&lt;/p&gt;&lt;hr size=&quot;1&quot;&gt;&lt;p style=&quot;margin:0px;margin-left:4px;&quot;&gt;+ ContentType : string &amp;lt;&amp;lt;get&amp;gt;&amp;gt;&lt;/p&gt;&lt;p style=&quot;margin:0px;margin-left:4px;&quot;&gt;+ FileExtension : string &amp;lt;&amp;lt;get&amp;gt;&amp;gt;&lt;/p&gt;&lt;hr size=&quot;1&quot;&gt;&lt;p style=&quot;margin:0px;margin-left:4px;&quot;&gt;+ Export(data:IEnumerable&amp;lt;T&amp;gt;) : byte[]&lt;br&gt;&lt;/p&gt;" style="verticalAlign=top;align=left;overflow=fill;fontSize=12;fontFamily=Helvetica;html=1;rounded=0;shadow=0;comic=0;labelBackgroundColor=none;strokeWidth=1" parent="1" vertex="1">
          <mxGeometry x="2392" y="435" width="220" height="140" as="geometry" />
        </mxCell>
        <mxCell id="O-DQKDpTSATR4mZIGXTW-17" style="edgeStyle=orthogonalEdgeStyle;rounded=0;orthogonalLoop=1;jettySize=auto;html=1;entryX=0.5;entryY=1;entryDx=0;entryDy=0;" parent="1" source="O-DQKDpTSATR4mZIGXTW-4" target="O-DQKDpTSATR4mZIGXTW-1" edge="1">
          <mxGeometry relative="1" as="geometry" />
        </mxCell>
        <mxCell id="O-DQKDpTSATR4mZIGXTW-4" value="&lt;p style=&quot;margin:0px;margin-top:4px;text-align:center;&quot;&gt;&lt;b&gt;JsonDataExporter&lt;/b&gt;&lt;/p&gt;&lt;hr size=&quot;1&quot;&gt;&lt;p style=&quot;margin:0px;margin-left:4px;&quot;&gt;+ ContentType : string &amp;lt;&amp;lt;get&amp;gt;&amp;gt;&lt;/p&gt;&lt;p style=&quot;margin:0px;margin-left:4px;&quot;&gt;+ FileExtension : string &amp;lt;&amp;lt;get&amp;gt;&amp;gt;&lt;/p&gt;&lt;hr size=&quot;1&quot;&gt;&lt;p style=&quot;margin:0px;margin-left:4px;&quot;&gt;+ Export(data:IEnumerable&amp;lt;T&amp;gt;) : byte[]&lt;br&gt;&lt;/p&gt;" style="verticalAlign=top;align=left;overflow=fill;fontSize=12;fontFamily=Helvetica;html=1;rounded=0;shadow=0;comic=0;labelBackgroundColor=none;strokeWidth=1" parent="1" vertex="1">
          <mxGeometry x="2636.37" y="435" width="221.25" height="140" as="geometry" />
        </mxCell>
        <mxCell id="O-DQKDpTSATR4mZIGXTW-67" style="edgeStyle=orthogonalEdgeStyle;rounded=0;orthogonalLoop=1;jettySize=auto;html=1;" parent="1" source="O-DQKDpTSATR4mZIGXTW-5" target="O-DQKDpTSATR4mZIGXTW-1" edge="1">
          <mxGeometry relative="1" as="geometry">
            <Array as="points">
              <mxPoint x="2992" y="410" />
              <mxPoint x="2747" y="410" />
            </Array>
          </mxGeometry>
        </mxCell>
        <mxCell id="O-DQKDpTSATR4mZIGXTW-5" value="&lt;p style=&quot;margin:0px;margin-top:4px;text-align:center;&quot;&gt;&lt;b&gt;CsvDataExporter&lt;/b&gt;&lt;/p&gt;&lt;hr size=&quot;1&quot;&gt;&lt;p style=&quot;margin:0px;margin-left:4px;&quot;&gt;+ ContentType : string &amp;lt;&amp;lt;get&amp;gt;&amp;gt;&lt;/p&gt;&lt;p style=&quot;margin:0px;margin-left:4px;&quot;&gt;+ FileExtension : string &amp;lt;&amp;lt;get&amp;gt;&amp;gt;&lt;/p&gt;&lt;hr size=&quot;1&quot;&gt;&lt;p style=&quot;margin:0px;margin-left:4px;&quot;&gt;+ Export(data:IEnumerable&amp;lt;T&amp;gt;) : byte[]&lt;br&gt;&lt;/p&gt;&lt;p style=&quot;margin:0px;margin-left:4px;&quot;&gt;- Escape(value:string) : string&lt;br&gt;&lt;/p&gt;" style="verticalAlign=top;align=left;overflow=fill;fontSize=12;fontFamily=Helvetica;html=1;rounded=0;shadow=0;comic=0;labelBackgroundColor=none;strokeWidth=1" parent="1" vertex="1">
          <mxGeometry x="2882" y="435" width="220" height="140" as="geometry" />
        </mxCell>
        <mxCell id="O-DQKDpTSATR4mZIGXTW-12" style="edgeStyle=orthogonalEdgeStyle;rounded=0;orthogonalLoop=1;jettySize=auto;html=1;entryX=0.5;entryY=1;entryDx=0;entryDy=0;dashed=1;" parent="1" source="O-DQKDpTSATR4mZIGXTW-6" target="O-DQKDpTSATR4mZIGXTW-2" edge="1">
          <mxGeometry relative="1" as="geometry" />
        </mxCell>
        <mxCell id="O-DQKDpTSATR4mZIGXTW-6" value="&lt;p style=&quot;margin:0px;margin-top:4px;text-align:center;&quot;&gt;&lt;b&gt;DataExporters&lt;/b&gt;&lt;/p&gt;&lt;hr size=&quot;1&quot;&gt;&lt;p style=&quot;margin:0px;margin-left:4px;&quot;&gt;&lt;br&gt;&lt;/p&gt;&lt;hr size=&quot;1&quot;&gt;&lt;p style=&quot;margin:0px;margin-left:4px;&quot;&gt;+ GetExporter(format:string) : IDataExporter&amp;lt;T&amp;gt;&lt;br&gt;&lt;/p&gt;" style="verticalAlign=top;align=left;overflow=fill;fontSize=12;fontFamily=Helvetica;html=1;rounded=0;shadow=0;comic=0;labelBackgroundColor=none;strokeWidth=1" parent="1" vertex="1">
          <mxGeometry x="3182" y="485" width="260" height="80" as="geometry" />
        </mxCell>
        <mxCell id="O-DQKDpTSATR4mZIGXTW-10" style="edgeStyle=orthogonalEdgeStyle;rounded=0;orthogonalLoop=1;jettySize=auto;html=1;entryX=1;entryY=0.7;entryDx=0;entryDy=0;entryPerimeter=0;" parent="1" source="O-DQKDpTSATR4mZIGXTW-6" edge="1">
          <mxGeometry relative="1" as="geometry">
            <mxPoint x="3112" y="526" as="targetPoint" />
            <Array as="points">
              <mxPoint x="3192" y="526" />
              <mxPoint x="3192" y="526" />
            </Array>
          </mxGeometry>
        </mxCell>
        <mxCell id="O-DQKDpTSATR4mZIGXTW-11" value="creates" style="text;html=1;align=center;verticalAlign=middle;whiteSpace=wrap;rounded=0;" parent="1" vertex="1">
          <mxGeometry x="3122" y="490" width="60" height="30" as="geometry" />
        </mxCell>
        <mxCell id="fKr8kIdKR8H5jGHbH5O1-1" value="" style="edgeStyle=orthogonalEdgeStyle;rounded=0;orthogonalLoop=1;jettySize=auto;html=1;" edge="1" parent="1" source="O-DQKDpTSATR4mZIGXTW-19" target="O-DQKDpTSATR4mZIGXTW-20">
          <mxGeometry relative="1" as="geometry" />
        </mxCell>
        <mxCell id="O-DQKDpTSATR4mZIGXTW-19" value="&lt;b&gt;Microsoft.AspNetCore.Mvc.Controller&lt;/b&gt;" style="html=1;rounded=0;shadow=0;comic=0;labelBackgroundColor=none;strokeWidth=1;fontFamily=Verdana;fontSize=10;align=center;" parent="1" vertex="1">
          <mxGeometry x="1141.5" y="550" width="230" height="40" as="geometry" />
        </mxCell>
        <mxCell id="O-DQKDpTSATR4mZIGXTW-21" style="edgeStyle=orthogonalEdgeStyle;rounded=0;orthogonalLoop=1;jettySize=auto;html=1;entryX=0.5;entryY=1;entryDx=0;entryDy=0;" parent="1" source="O-DQKDpTSATR4mZIGXTW-20" target="O-DQKDpTSATR4mZIGXTW-19" edge="1">
          <mxGeometry relative="1" as="geometry" />
        </mxCell>
        <mxCell id="O-DQKDpTSATR4mZIGXTW-20" value="&lt;p style=&quot;margin:0px;margin-top:4px;text-align:center;&quot;&gt;&lt;i&gt;&amp;lt;&amp;lt;Abstract&amp;gt;&amp;gt;&lt;/i&gt;&lt;br&gt;&lt;b&gt;BaseController&lt;/b&gt;&lt;/p&gt;&lt;hr size=&quot;1&quot;&gt;&lt;p style=&quot;margin:0px;margin-left:4px;&quot;&gt;- &amp;lt;&amp;lt;const&amp;gt;&amp;gt; SelectedLanguageSessionKey : string = &quot;SelectedLanguage&quot;&lt;br&gt;&lt;/p&gt;&lt;hr size=&quot;1&quot;&gt;&lt;p style=&quot;margin:0px;margin-left:4px;&quot;&gt;# SetSelectedLanguage(languageId:int) : void&lt;/p&gt;&lt;p style=&quot;margin:0px;margin-left:4px;&quot;&gt;# GetSelectedLanguage() : int?&lt;/p&gt;&lt;p style=&quot;margin:0px;margin-left:4px;&quot;&gt;# GetUserId() : string?&lt;/p&gt;" style="verticalAlign=top;align=left;overflow=fill;fontSize=12;fontFamily=Helvetica;html=1;rounded=0;shadow=0;comic=0;labelBackgroundColor=none;strokeWidth=1" parent="1" vertex="1">
          <mxGeometry x="1054" y="648" width="405" height="120" as="geometry" />
        </mxCell>
        <mxCell id="O-DQKDpTSATR4mZIGXTW-51" style="edgeStyle=orthogonalEdgeStyle;rounded=0;orthogonalLoop=1;jettySize=auto;html=1;" parent="1" source="O-DQKDpTSATR4mZIGXTW-22" target="O-DQKDpTSATR4mZIGXTW-20" edge="1">
          <mxGeometry relative="1" as="geometry">
            <Array as="points">
              <mxPoint x="586" y="808" />
              <mxPoint x="1256" y="808" />
            </Array>
          </mxGeometry>
        </mxCell>
        <mxCell id="O-DQKDpTSATR4mZIGXTW-22" value="&lt;p style=&quot;margin:0px;margin-top:4px;text-align:center;&quot;&gt;&lt;b&gt;LanguagesController&lt;/b&gt;&lt;/p&gt;&lt;hr size=&quot;1&quot;&gt;&lt;p style=&quot;margin:0px;margin-left:4px;&quot;&gt;- &amp;lt;&amp;lt;readonly&amp;gt;&amp;gt; _languageRepository : ILanguageRepository&lt;/p&gt;&lt;p style=&quot;margin:0px;margin-left:4px;&quot;&gt;- &amp;lt;&amp;lt;readonly&amp;gt;&amp;gt; _logger : ILogger&amp;lt;LanguagesController&amp;gt;&lt;/p&gt;&lt;hr size=&quot;1&quot;&gt;&lt;p style=&quot;margin:0px;margin-left:4px;&quot;&gt;+ LanguagesController(languageRepository:ILanguageRepository, logger:ILogger&amp;lt;LanguagesController&amp;gt;)&lt;/p&gt;&lt;p style=&quot;margin:0px;margin-left:4px;&quot;&gt;+ &amp;lt;&amp;lt;async&amp;gt;&amp;gt; Index() : Task&amp;lt;IActionResult&amp;gt;&lt;/p&gt;&lt;p style=&quot;margin:0px;margin-left:4px;&quot;&gt;+ Create() : IActionResult&lt;/p&gt;&lt;p style=&quot;margin:0px;margin-left:4px;&quot;&gt;+ &amp;lt;&amp;lt;async&amp;gt;&amp;gt; Create(language:Language) : Task&amp;lt;IActionResult&amp;gt;&lt;/p&gt;" style="verticalAlign=top;align=left;overflow=fill;fontSize=12;fontFamily=Helvetica;html=1;rounded=0;shadow=0;comic=0;labelBackgroundColor=none;strokeWidth=1" parent="1" vertex="1">
          <mxGeometry x="299" y="824" width="575" height="139" as="geometry" />
        </mxCell>
        <mxCell id="O-DQKDpTSATR4mZIGXTW-42" style="edgeStyle=orthogonalEdgeStyle;rounded=0;orthogonalLoop=1;jettySize=auto;html=1;" parent="1" source="O-DQKDpTSATR4mZIGXTW-24" target="O-DQKDpTSATR4mZIGXTW-20" edge="1">
          <mxGeometry relative="1" as="geometry" />
        </mxCell>
        <mxCell id="O-DQKDpTSATR4mZIGXTW-24" value="&lt;p style=&quot;margin:0px;margin-top:4px;text-align:center;&quot;&gt;&lt;b&gt;LanguageSelectionController&lt;/b&gt;&lt;br&gt;&lt;/p&gt;&lt;hr size=&quot;1&quot;&gt;&lt;p style=&quot;margin:0px;margin-left:4px;&quot;&gt;- &amp;lt;&amp;lt;readonly&amp;gt;&amp;gt; _languageRepository : ILanguageRepository&lt;/p&gt;&lt;hr size=&quot;1&quot;&gt;&lt;p style=&quot;margin:0px;margin-left:4px;&quot;&gt;+ LanguageSelectionController(languageRepository:ILanguageRepository)&lt;/p&gt;&lt;p style=&quot;margin:0px;margin-left:4px;&quot;&gt;+ &amp;lt;&amp;lt;async&amp;gt;&amp;gt; SelectLanguage(returnUrl:string) : Task&amp;lt;IActionResult&amp;gt;&lt;/p&gt;&lt;p style=&quot;margin:0px;margin-left:4px;&quot;&gt;+ SetLanguage(languageId:int, returnUrl:string) : IActionResult&lt;/p&gt;" style="verticalAlign=top;align=left;overflow=fill;fontSize=12;fontFamily=Helvetica;html=1;rounded=0;shadow=0;comic=0;labelBackgroundColor=none;strokeWidth=1" parent="1" vertex="1">
          <mxGeometry x="969" y="828" width="575" height="109.5" as="geometry" />
        </mxCell>
        <mxCell id="O-DQKDpTSATR4mZIGXTW-52" style="edgeStyle=orthogonalEdgeStyle;rounded=0;orthogonalLoop=1;jettySize=auto;html=1;" parent="1" source="O-DQKDpTSATR4mZIGXTW-25" target="O-DQKDpTSATR4mZIGXTW-20" edge="1">
          <mxGeometry relative="1" as="geometry">
            <Array as="points">
              <mxPoint x="1889" y="808" />
              <mxPoint x="1256" y="808" />
            </Array>
          </mxGeometry>
        </mxCell>
        <mxCell id="O-DQKDpTSATR4mZIGXTW-25" value="&lt;p style=&quot;margin:0px;margin-top:4px;text-align:center;&quot;&gt;&lt;b&gt;RepeatableWordsController&lt;/b&gt;&lt;br&gt;&lt;/p&gt;&lt;hr size=&quot;1&quot;&gt;&lt;p style=&quot;margin:0px;margin-left:4px;&quot;&gt;- &amp;lt;&amp;lt;readonly&amp;gt;&amp;gt; _repeatableWordsService : RepeatableWordsService&lt;br&gt;&lt;/p&gt;&lt;hr size=&quot;1&quot;&gt;&lt;p style=&quot;margin:0px;margin-left:4px;&quot;&gt;+ RepeatableWordsController(repeatableWordsService:RepeatableWordsService)&lt;/p&gt;&lt;p style=&quot;margin:0px;margin-left:4px;&quot;&gt;+ &amp;lt;&amp;lt;async&amp;gt;&amp;gt; Index() : Task&amp;lt;IActionResult&amp;gt;&lt;/p&gt;" style="verticalAlign=top;align=left;overflow=fill;fontSize=12;fontFamily=Helvetica;html=1;rounded=0;shadow=0;comic=0;labelBackgroundColor=none;strokeWidth=1" parent="1" vertex="1">
          <mxGeometry x="1664" y="828" width="450" height="89" as="geometry" />
        </mxCell>
        <mxCell id="O-DQKDpTSATR4mZIGXTW-50" style="edgeStyle=orthogonalEdgeStyle;rounded=0;orthogonalLoop=1;jettySize=auto;html=1;exitX=0.5;exitY=0;exitDx=0;exitDy=0;" parent="1" source="O-DQKDpTSATR4mZIGXTW-26" target="O-DQKDpTSATR4mZIGXTW-20" edge="1">
          <mxGeometry relative="1" as="geometry">
            <Array as="points">
              <mxPoint x="1177" y="1453" />
              <mxPoint x="1177" y="1453" />
              <mxPoint x="1177" y="1278" />
              <mxPoint x="939" y="1278" />
              <mxPoint x="939" y="808" />
              <mxPoint x="1256" y="808" />
            </Array>
          </mxGeometry>
        </mxCell>
        <mxCell id="O-DQKDpTSATR4mZIGXTW-26" value="&lt;p style=&quot;margin:0px;margin-top:4px;text-align:center;&quot;&gt;&lt;b&gt;HomeController&lt;/b&gt;&lt;br&gt;&lt;/p&gt;&lt;hr size=&quot;1&quot;&gt;&lt;p style=&quot;margin:0px;margin-left:4px;&quot;&gt;- &amp;lt;&amp;lt;readonly&amp;gt;&amp;gt; _logger : ILogger&amp;lt;HomeController&amp;gt;&lt;/p&gt;&lt;p style=&quot;margin:0px;margin-left:4px;&quot;&gt;&lt;span style=&quot;background-color: initial;&quot;&gt;- &amp;lt;&amp;lt;readonly&amp;gt;&amp;gt; _dailyChallengeService : IDailyChallengeService&lt;/span&gt;&lt;br&gt;&lt;/p&gt;&lt;hr size=&quot;1&quot;&gt;&lt;p style=&quot;margin:0px;margin-left:4px;&quot;&gt;+ HomeController(dailyChallengeService:DailyChallengeService, logger:ILogger&amp;lt;HomeController&amp;gt;)&lt;/p&gt;&lt;p style=&quot;margin:0px;margin-left:4px;&quot;&gt;+ &amp;lt;&amp;lt;async&amp;gt;&amp;gt; Index() : Task&amp;lt;IActionResult&amp;gt;&lt;/p&gt;&lt;p style=&quot;margin:0px;margin-left:4px;&quot;&gt;+ &amp;lt;&amp;lt;async&amp;gt;&amp;gt; CompleteChallenge(challengeId:int) : Task&amp;lt;IActionResult&amp;gt;&lt;/p&gt;&lt;p style=&quot;margin:0px;margin-left:4px;&quot;&gt;+ Error() : IActionResult&lt;/p&gt;" style="verticalAlign=top;align=left;overflow=fill;fontSize=12;fontFamily=Helvetica;html=1;rounded=0;shadow=0;comic=0;labelBackgroundColor=none;strokeWidth=1" parent="1" vertex="1">
          <mxGeometry x="889" y="1458" width="575" height="137" as="geometry" />
        </mxCell>
        <mxCell id="O-DQKDpTSATR4mZIGXTW-53" style="edgeStyle=orthogonalEdgeStyle;rounded=0;orthogonalLoop=1;jettySize=auto;html=1;" parent="1" source="O-DQKDpTSATR4mZIGXTW-27" target="O-DQKDpTSATR4mZIGXTW-20" edge="1">
          <mxGeometry relative="1" as="geometry">
            <Array as="points">
              <mxPoint x="1599" y="968" />
              <mxPoint x="939" y="968" />
              <mxPoint x="939" y="808" />
              <mxPoint x="1257" y="808" />
            </Array>
          </mxGeometry>
        </mxCell>
        <mxCell id="O-DQKDpTSATR4mZIGXTW-27" value="&lt;p style=&quot;margin:0px;margin-top:4px;text-align:center;&quot;&gt;&lt;b&gt;WordsController&lt;/b&gt;&lt;/p&gt;&lt;hr size=&quot;1&quot;&gt;&lt;p style=&quot;margin:0px;margin-left:4px;&quot;&gt;- &amp;lt;&amp;lt;readonly&amp;gt;&amp;gt; _wordRepository : IWordRepository&lt;/p&gt;&lt;p style=&quot;margin:0px;margin-left:4px;&quot;&gt;- &amp;lt;&amp;lt;readonly&amp;gt;&amp;gt; _languageRepository : ILanguageRepository&lt;/p&gt;&lt;p style=&quot;margin:0px;margin-left:4px;&quot;&gt;- &amp;lt;&amp;lt;readonly&amp;gt;&amp;gt; _dataExporters : IDataExporters&lt;/p&gt;&lt;p style=&quot;margin:0px;margin-left:4px;&quot;&gt;- &amp;lt;&amp;lt;readonly&amp;gt;&amp;gt; _dataImporters : IDataImporters&lt;/p&gt;&lt;p style=&quot;margin:0px;margin-left:4px;&quot;&gt;&lt;span style=&quot;background-color: initial;&quot;&gt;- &amp;lt;&amp;lt;readonly&amp;gt;&amp;gt; _logger : ILogger&amp;lt;WordsController&lt;/span&gt;&lt;br&gt;&lt;/p&gt;&lt;hr size=&quot;1&quot;&gt;&lt;p style=&quot;margin:0px;margin-left:4px;&quot;&gt;+ WordsController(wordRepository:IWordRepository, languageRepository:ILanguageRepository, dataExporters:IDataExporters, dataImporters:IDataImporters, logger:ILogger&amp;lt;WordsController&amp;gt;)&lt;/p&gt;&lt;p style=&quot;margin:0px;margin-left:4px;&quot;&gt;+ &amp;lt;&amp;lt;async&amp;gt;&amp;gt; Index(page:int, pageSize:int) : Task&amp;lt;IActionResult&amp;gt;&lt;/p&gt;&lt;p style=&quot;margin:0px;margin-left:4px;&quot;&gt;+ &amp;lt;&amp;lt;async&amp;gt;&amp;gt; Create() : Task&amp;lt;IActionResult&amp;gt;&lt;/p&gt;&lt;p style=&quot;margin:0px;margin-left:4px;&quot;&gt;+ &amp;lt;&amp;lt;async&amp;gt;&amp;gt; Create(word:Word) : Task&amp;lt;IActionResult&amp;gt;&lt;/p&gt;&lt;p style=&quot;margin:0px;margin-left:4px;&quot;&gt;+ ExportData() : IActionResult&lt;/p&gt;&lt;p style=&quot;margin:0px;margin-left:4px;&quot;&gt;+ &amp;lt;&amp;lt;async&amp;gt;&amp;gt; ExportData(format:string) : Task&amp;lt;IActionResult&amp;gt;&lt;/p&gt;&lt;p style=&quot;margin:0px;margin-left:4px;&quot;&gt;+ ImportData() : IActionResult&lt;/p&gt;&lt;p style=&quot;margin:0px;margin-left:4px;&quot;&gt;+ &amp;lt;&amp;lt;async&amp;gt;&amp;gt; ImportData(format:string, file:IFormFile) : Task&amp;lt;IActionResult&amp;gt;&lt;/p&gt;" style="verticalAlign=top;align=left;overflow=fill;fontSize=12;fontFamily=Helvetica;html=1;rounded=0;shadow=0;comic=0;labelBackgroundColor=none;strokeWidth=1" parent="1" vertex="1">
          <mxGeometry x="1084" y="1008" width="1030" height="240" as="geometry" />
        </mxCell>
        <mxCell id="O-DQKDpTSATR4mZIGXTW-49" style="edgeStyle=orthogonalEdgeStyle;rounded=0;orthogonalLoop=1;jettySize=auto;html=1;" parent="1" source="O-DQKDpTSATR4mZIGXTW-28" target="O-DQKDpTSATR4mZIGXTW-20" edge="1">
          <mxGeometry relative="1" as="geometry">
            <Array as="points">
              <mxPoint x="587" y="998" />
              <mxPoint x="939" y="998" />
              <mxPoint x="939" y="808" />
              <mxPoint x="1257" y="808" />
            </Array>
          </mxGeometry>
        </mxCell>
        <mxCell id="O-DQKDpTSATR4mZIGXTW-28" value="&lt;p style=&quot;margin:0px;margin-top:4px;text-align:center;&quot;&gt;&lt;b&gt;ReportsController&lt;/b&gt;&lt;br&gt;&lt;/p&gt;&lt;hr size=&quot;1&quot;&gt;&lt;p style=&quot;margin:0px;margin-left:4px;&quot;&gt;- &amp;lt;&amp;lt;readonly&amp;gt;&amp;gt; _activityLogRepository : IActivityLogRepository&lt;br&gt;&lt;/p&gt;&lt;hr size=&quot;1&quot;&gt;&lt;p style=&quot;margin:0px;margin-left:4px;&quot;&gt;+ ReportsController(activityLogRepository:IActivityLogRepository)&lt;/p&gt;&lt;p style=&quot;margin:0px;margin-left:4px;&quot;&gt;+ &amp;lt;&amp;lt;async&amp;gt;&amp;gt; UserActivity(days:int) : Task&amp;lt;IActionResult&amp;gt;&lt;/p&gt;" style="verticalAlign=top;align=left;overflow=fill;fontSize=12;fontFamily=Helvetica;html=1;rounded=0;shadow=0;comic=0;labelBackgroundColor=none;strokeWidth=1" parent="1" vertex="1">
          <mxGeometry x="299" y="1028" width="575" height="90" as="geometry" />
        </mxCell>
        <mxCell id="O-DQKDpTSATR4mZIGXTW-48" style="edgeStyle=orthogonalEdgeStyle;rounded=0;orthogonalLoop=1;jettySize=auto;html=1;" parent="1" source="O-DQKDpTSATR4mZIGXTW-29" target="O-DQKDpTSATR4mZIGXTW-20" edge="1">
          <mxGeometry relative="1" as="geometry">
            <Array as="points">
              <mxPoint x="537" y="1178" />
              <mxPoint x="939" y="1178" />
              <mxPoint x="939" y="808" />
              <mxPoint x="1257" y="808" />
            </Array>
          </mxGeometry>
        </mxCell>
        <mxCell id="O-DQKDpTSATR4mZIGXTW-29" value="&lt;p style=&quot;margin:0px;margin-top:4px;text-align:center;&quot;&gt;&lt;b&gt;GroupsController&lt;/b&gt;&lt;br&gt;&lt;/p&gt;&lt;hr size=&quot;1&quot;&gt;&lt;p style=&quot;margin:0px;margin-left:4px;&quot;&gt;- &amp;lt;&amp;lt;readonly&amp;gt;&amp;gt; _groupRepository : IGroupRepository&lt;/p&gt;&lt;p style=&quot;margin:0px;margin-left:4px;&quot;&gt;- &amp;lt;&amp;lt;readonly&amp;gt;&amp;gt; _wordRepository : IWordRepository&lt;/p&gt;&lt;p style=&quot;margin:0px;margin-left:4px;&quot;&gt;- &amp;lt;&amp;lt;readonly&amp;gt;&amp;gt; _languageRepository : ILanguageRepository&lt;/p&gt;&lt;hr size=&quot;1&quot;&gt;&lt;p style=&quot;margin:0px;margin-left:4px;&quot;&gt;+ GroupsController(groupRepository:IGroupRepository, wordRepository:IWordRepository, languageRepository:ILanguageRepository)&lt;/p&gt;&lt;p style=&quot;margin:0px;margin-left:4px;&quot;&gt;+ &amp;lt;&amp;lt;async&amp;gt;&amp;gt; Index() : Task&amp;lt;IActionResult&amp;gt;&lt;/p&gt;&lt;p style=&quot;margin:0px;margin-left:4px;&quot;&gt;+ &amp;lt;&amp;lt;async&amp;gt;&amp;gt; CreateGroup() : Task&amp;lt;IActionResult&amp;gt;&lt;/p&gt;&lt;p style=&quot;margin:0px;margin-left:4px;&quot;&gt;+ &amp;lt;&amp;lt;async&amp;gt;&amp;gt; CreateGroup(name:string) : Task&amp;lt;IActionResult&amp;gt;&lt;/p&gt;&lt;p style=&quot;margin:0px;margin-left:4px;&quot;&gt;+ &amp;lt;&amp;lt;async&amp;gt;&amp;gt; AddWords(groupId:int) : Task&amp;lt;IActionResult&amp;gt;&lt;/p&gt;&lt;p style=&quot;margin:0px;margin-left:4px;&quot;&gt;+ &amp;lt;&amp;lt;async&amp;gt;&amp;gt; AddWordToGroup(groupId:int, wordId:int) : Task&amp;lt;IActionResult&amp;gt;&lt;/p&gt;&lt;p style=&quot;margin:0px;margin-left:4px;&quot;&gt;+ &amp;lt;&amp;lt;async&amp;gt;&amp;gt; RemoveWordFromGroup(groupId:int, wordId:int) : Task&amp;lt;IActionResult&amp;gt;&lt;/p&gt;" style="verticalAlign=top;align=left;overflow=fill;fontSize=12;fontFamily=Helvetica;html=1;rounded=0;shadow=0;comic=0;labelBackgroundColor=none;strokeWidth=1" parent="1" vertex="1">
          <mxGeometry x="179" y="1212" width="715" height="186" as="geometry" />
        </mxCell>
        <mxCell id="O-DQKDpTSATR4mZIGXTW-47" style="edgeStyle=orthogonalEdgeStyle;rounded=0;orthogonalLoop=1;jettySize=auto;html=1;" parent="1" source="O-DQKDpTSATR4mZIGXTW-30" target="O-DQKDpTSATR4mZIGXTW-20" edge="1">
          <mxGeometry relative="1" as="geometry">
            <Array as="points">
              <mxPoint x="1807" y="1278" />
              <mxPoint x="939" y="1278" />
              <mxPoint x="939" y="808" />
              <mxPoint x="1257" y="808" />
            </Array>
          </mxGeometry>
        </mxCell>
        <mxCell id="O-DQKDpTSATR4mZIGXTW-30" value="&lt;p style=&quot;margin:0px;margin-top:4px;text-align:center;&quot;&gt;&lt;b&gt;LearningController&lt;/b&gt;&lt;br&gt;&lt;/p&gt;&lt;hr size=&quot;1&quot;&gt;&lt;p style=&quot;margin:0px;margin-left:4px;&quot;&gt;- &amp;lt;&amp;lt;readonly&amp;gt;&amp;gt; _learningFacade : ILearningFacade&lt;br&gt;&lt;/p&gt;&lt;hr size=&quot;1&quot;&gt;&lt;p style=&quot;margin:0px;margin-left:4px;&quot;&gt;+ LearningController(learningFacade:ILearningFacade, notifier:ActivityNotifier, logger:IActivityObserver)&lt;/p&gt;&lt;p style=&quot;margin:0px;margin-left:4px;&quot;&gt;+ &amp;lt;&amp;lt;async&amp;gt;&amp;gt; SelectMode() : Task&amp;lt;IActionResult&amp;gt;&lt;/p&gt;&lt;p style=&quot;margin:0px;margin-left:4px;&quot;&gt;+ &amp;lt;&amp;lt;async&amp;gt;&amp;gt; SubmitAnswer(wordId:int, userAnswer:string, mode:string) : Task&amp;lt;IActionResult&amp;gt;&lt;/p&gt;&lt;p style=&quot;margin:0px;margin-left:4px;&quot;&gt;+ &amp;lt;&amp;lt;async&amp;gt;&amp;gt; Question(groupId:int?, isNewSession:bool, isRepeatSession:bool) : Task&amp;lt;IActionResult&amp;gt;&lt;/p&gt;" style="verticalAlign=top;align=left;overflow=fill;fontSize=12;fontFamily=Helvetica;html=1;rounded=0;shadow=0;comic=0;labelBackgroundColor=none;strokeWidth=1" parent="1" vertex="1">
          <mxGeometry x="1519" y="1323" width="575" height="123" as="geometry" />
        </mxCell>
        <mxCell id="O-DQKDpTSATR4mZIGXTW-69" value="" style="rounded=0;whiteSpace=wrap;html=1;fillColor=none;" parent="1" vertex="1">
          <mxGeometry x="2382" y="644" width="730" height="330" as="geometry" />
        </mxCell>
        <mxCell id="O-DQKDpTSATR4mZIGXTW-70" value="&lt;p style=&quot;margin:0px;margin-top:4px;text-align:center;&quot;&gt;&lt;i&gt;&amp;lt;&amp;lt;Interface&amp;gt;&amp;gt;&lt;/i&gt;&lt;br&gt;&lt;b&gt;IDataImporter&lt;/b&gt;&lt;/p&gt;&lt;hr size=&quot;1&quot;&gt;&lt;p style=&quot;margin:0px;margin-left:4px;&quot;&gt;&lt;br&gt;&lt;/p&gt;&lt;hr size=&quot;1&quot;&gt;&lt;p style=&quot;margin:0px;margin-left:4px;&quot;&gt;Import(data:IEnumerable&amp;lt;T&amp;gt;) : byte[]&lt;br&gt;&lt;/p&gt;" style="verticalAlign=top;align=left;overflow=fill;fontSize=12;fontFamily=Helvetica;html=1;rounded=0;shadow=0;comic=0;labelBackgroundColor=none;strokeWidth=1" parent="1" vertex="1">
          <mxGeometry x="2640.75" y="664" width="212.5" height="110" as="geometry" />
        </mxCell>
        <mxCell id="O-DQKDpTSATR4mZIGXTW-71" value="&lt;p style=&quot;margin:0px;margin-top:4px;text-align:center;&quot;&gt;&lt;i&gt;&amp;lt;&amp;lt;Interface&amp;gt;&amp;gt;&lt;/i&gt;&lt;br&gt;&lt;b&gt;IDataImporters&lt;/b&gt;&lt;/p&gt;&lt;hr size=&quot;1&quot;&gt;&lt;p style=&quot;margin:0px;margin-left:4px;&quot;&gt;&lt;br&gt;&lt;/p&gt;&lt;hr size=&quot;1&quot;&gt;&lt;p style=&quot;margin:0px;margin-left:4px;&quot;&gt;GetImporter(format:string) : IDataExporter&amp;lt;T&amp;gt;&lt;br&gt;&lt;/p&gt;" style="verticalAlign=top;align=left;overflow=fill;fontSize=12;fontFamily=Helvetica;html=1;rounded=0;shadow=0;comic=0;labelBackgroundColor=none;strokeWidth=1" parent="1" vertex="1">
          <mxGeometry x="3187" y="734" width="250" height="100" as="geometry" />
        </mxCell>
        <mxCell id="O-DQKDpTSATR4mZIGXTW-72" style="edgeStyle=orthogonalEdgeStyle;rounded=0;orthogonalLoop=1;jettySize=auto;html=1;" parent="1" source="O-DQKDpTSATR4mZIGXTW-73" target="O-DQKDpTSATR4mZIGXTW-70" edge="1">
          <mxGeometry relative="1" as="geometry">
            <Array as="points">
              <mxPoint x="2502" y="794" />
              <mxPoint x="2747" y="794" />
            </Array>
          </mxGeometry>
        </mxCell>
        <mxCell id="O-DQKDpTSATR4mZIGXTW-73" value="&lt;p style=&quot;margin:0px;margin-top:4px;text-align:center;&quot;&gt;&lt;b&gt;JsonDataImporter&lt;/b&gt;&lt;/p&gt;&lt;hr size=&quot;1&quot;&gt;&lt;p style=&quot;margin:0px;margin-left:4px;&quot;&gt;+ ContentType : string &amp;lt;&amp;lt;get&amp;gt;&amp;gt;&lt;/p&gt;&lt;p style=&quot;margin:0px;margin-left:4px;&quot;&gt;+ FileExtension : string &amp;lt;&amp;lt;get&amp;gt;&amp;gt;&lt;/p&gt;&lt;hr size=&quot;1&quot;&gt;&lt;p style=&quot;margin:0px;margin-left:4px;&quot;&gt;+ Import(data:byte[]) : IEnumerable&amp;lt;T&amp;gt;&lt;br&gt;&lt;/p&gt;" style="verticalAlign=top;align=left;overflow=fill;fontSize=12;fontFamily=Helvetica;html=1;rounded=0;shadow=0;comic=0;labelBackgroundColor=none;strokeWidth=1" parent="1" vertex="1">
          <mxGeometry x="2392" y="819" width="220" height="91" as="geometry" />
        </mxCell>
        <mxCell id="O-DQKDpTSATR4mZIGXTW-74" style="edgeStyle=orthogonalEdgeStyle;rounded=0;orthogonalLoop=1;jettySize=auto;html=1;entryX=0.5;entryY=1;entryDx=0;entryDy=0;" parent="1" source="O-DQKDpTSATR4mZIGXTW-75" target="O-DQKDpTSATR4mZIGXTW-70" edge="1">
          <mxGeometry relative="1" as="geometry" />
        </mxCell>
        <mxCell id="O-DQKDpTSATR4mZIGXTW-75" value="&lt;p style=&quot;margin:0px;margin-top:4px;text-align:center;&quot;&gt;&lt;b&gt;JsonDataImporter&lt;/b&gt;&lt;/p&gt;&lt;hr size=&quot;1&quot;&gt;&lt;p style=&quot;margin:0px;margin-left:4px;&quot;&gt;+ ContentType : string &amp;lt;&amp;lt;get&amp;gt;&amp;gt;&lt;/p&gt;&lt;p style=&quot;margin:0px;margin-left:4px;&quot;&gt;+ FileExtension : string &amp;lt;&amp;lt;get&amp;gt;&amp;gt;&lt;/p&gt;&lt;hr size=&quot;1&quot;&gt;&lt;p style=&quot;margin:0px;margin-left:4px;&quot;&gt;+ Import(data:byte[]) : IEnumerable&amp;lt;T&amp;gt;&lt;br&gt;&lt;/p&gt;" style="verticalAlign=top;align=left;overflow=fill;fontSize=12;fontFamily=Helvetica;html=1;rounded=0;shadow=0;comic=0;labelBackgroundColor=none;strokeWidth=1" parent="1" vertex="1">
          <mxGeometry x="2636.37" y="819" width="221.25" height="91" as="geometry" />
        </mxCell>
        <mxCell id="O-DQKDpTSATR4mZIGXTW-76" style="edgeStyle=orthogonalEdgeStyle;rounded=0;orthogonalLoop=1;jettySize=auto;html=1;" parent="1" source="O-DQKDpTSATR4mZIGXTW-77" target="O-DQKDpTSATR4mZIGXTW-70" edge="1">
          <mxGeometry relative="1" as="geometry">
            <Array as="points">
              <mxPoint x="2992" y="794" />
              <mxPoint x="2747" y="794" />
            </Array>
          </mxGeometry>
        </mxCell>
        <mxCell id="O-DQKDpTSATR4mZIGXTW-77" value="&lt;p style=&quot;margin:0px;margin-top:4px;text-align:center;&quot;&gt;&lt;b&gt;CsvDataImporter&lt;/b&gt;&lt;/p&gt;&lt;hr size=&quot;1&quot;&gt;&lt;p style=&quot;margin:0px;margin-left:4px;&quot;&gt;+ ContentType : string &amp;lt;&amp;lt;get&amp;gt;&amp;gt;&lt;/p&gt;&lt;p style=&quot;margin:0px;margin-left:4px;&quot;&gt;+ FileExtension : string &amp;lt;&amp;lt;get&amp;gt;&amp;gt;&lt;/p&gt;&lt;hr size=&quot;1&quot;&gt;&lt;p style=&quot;margin:0px;margin-left:4px;&quot;&gt;+ Import(data:byte[]) : IEnumerable&amp;lt;T&amp;gt;&lt;br&gt;&lt;/p&gt;" style="verticalAlign=top;align=left;overflow=fill;fontSize=12;fontFamily=Helvetica;html=1;rounded=0;shadow=0;comic=0;labelBackgroundColor=none;strokeWidth=1" parent="1" vertex="1">
          <mxGeometry x="2882" y="819" width="220" height="91" as="geometry" />
        </mxCell>
        <mxCell id="O-DQKDpTSATR4mZIGXTW-78" style="edgeStyle=orthogonalEdgeStyle;rounded=0;orthogonalLoop=1;jettySize=auto;html=1;entryX=0.5;entryY=1;entryDx=0;entryDy=0;dashed=1;" parent="1" source="O-DQKDpTSATR4mZIGXTW-79" target="O-DQKDpTSATR4mZIGXTW-71" edge="1">
          <mxGeometry relative="1" as="geometry" />
        </mxCell>
        <mxCell id="O-DQKDpTSATR4mZIGXTW-79" value="&lt;p style=&quot;margin:0px;margin-top:4px;text-align:center;&quot;&gt;&lt;b&gt;DataImporters&lt;/b&gt;&lt;/p&gt;&lt;hr size=&quot;1&quot;&gt;&lt;p style=&quot;margin:0px;margin-left:4px;&quot;&gt;&lt;br&gt;&lt;/p&gt;&lt;hr size=&quot;1&quot;&gt;&lt;p style=&quot;margin:0px;margin-left:4px;&quot;&gt;+ GetImporter(format:string) : IDataExporter&amp;lt;T&amp;gt;&lt;br&gt;&lt;/p&gt;" style="verticalAlign=top;align=left;overflow=fill;fontSize=12;fontFamily=Helvetica;html=1;rounded=0;shadow=0;comic=0;labelBackgroundColor=none;strokeWidth=1" parent="1" vertex="1">
          <mxGeometry x="3182" y="869" width="260" height="80" as="geometry" />
        </mxCell>
        <mxCell id="O-DQKDpTSATR4mZIGXTW-80" style="edgeStyle=orthogonalEdgeStyle;rounded=0;orthogonalLoop=1;jettySize=auto;html=1;entryX=1;entryY=0.7;entryDx=0;entryDy=0;entryPerimeter=0;" parent="1" source="O-DQKDpTSATR4mZIGXTW-79" edge="1">
          <mxGeometry relative="1" as="geometry">
            <mxPoint x="3112" y="910" as="targetPoint" />
            <Array as="points">
              <mxPoint x="3192" y="910" />
              <mxPoint x="3192" y="910" />
            </Array>
          </mxGeometry>
        </mxCell>
        <mxCell id="O-DQKDpTSATR4mZIGXTW-81" value="creates" style="text;html=1;align=center;verticalAlign=middle;whiteSpace=wrap;rounded=0;" parent="1" vertex="1">
          <mxGeometry x="3122" y="874" width="60" height="30" as="geometry" />
        </mxCell>
        <mxCell id="O-DQKDpTSATR4mZIGXTW-82" value="" style="rounded=0;whiteSpace=wrap;html=1;fillColor=none;" parent="1" vertex="1">
          <mxGeometry x="2382" y="1024" width="730" height="565" as="geometry" />
        </mxCell>
        <mxCell id="O-DQKDpTSATR4mZIGXTW-91" style="edgeStyle=orthogonalEdgeStyle;rounded=0;orthogonalLoop=1;jettySize=auto;html=1;entryX=0.5;entryY=1;entryDx=0;entryDy=0;dashed=1;" parent="1" edge="1">
          <mxGeometry relative="1" as="geometry">
            <mxPoint x="3312" y="1249" as="sourcePoint" />
            <mxPoint x="3312" y="1214" as="targetPoint" />
          </mxGeometry>
        </mxCell>
        <mxCell id="O-DQKDpTSATR4mZIGXTW-93" style="edgeStyle=orthogonalEdgeStyle;rounded=0;orthogonalLoop=1;jettySize=auto;html=1;entryX=1;entryY=0.7;entryDx=0;entryDy=0;entryPerimeter=0;" parent="1" edge="1">
          <mxGeometry relative="1" as="geometry">
            <mxPoint x="3112" y="1290" as="targetPoint" />
            <Array as="points">
              <mxPoint x="3192" y="1290" />
              <mxPoint x="3192" y="1290" />
            </Array>
            <mxPoint x="3182" y="1290" as="sourcePoint" />
          </mxGeometry>
        </mxCell>
        <mxCell id="O-DQKDpTSATR4mZIGXTW-94" value="creates" style="text;html=1;align=center;verticalAlign=middle;whiteSpace=wrap;rounded=0;" parent="1" vertex="1">
          <mxGeometry x="3122" y="1254" width="60" height="30" as="geometry" />
        </mxCell>
        <mxCell id="BTasJADkef-aHpxUbXmq-1" value="&lt;p style=&quot;margin:0px;margin-top:4px;text-align:center;&quot;&gt;&lt;b&gt;ActivityLog&lt;/b&gt;&lt;/p&gt;&lt;hr size=&quot;1&quot;&gt;&lt;p style=&quot;margin:0px;margin-left:4px;&quot;&gt;&amp;nbsp; &amp;nbsp; + Id : int &amp;lt;&amp;lt;get&amp;gt;&amp;gt; &amp;lt;&amp;lt;set&amp;gt;&amp;gt;&lt;/p&gt;&lt;p style=&quot;margin:0px;margin-left:4px;&quot;&gt;&amp;nbsp; &amp;nbsp; + UserId : string &amp;lt;&amp;lt;get&amp;gt;&amp;gt; &amp;lt;&amp;lt;set&amp;gt;&amp;gt;&lt;/p&gt;&lt;p style=&quot;margin:0px;margin-left:4px;&quot;&gt;&amp;nbsp; &amp;nbsp; + WordId : int &amp;lt;&amp;lt;get&amp;gt;&amp;gt; &amp;lt;&amp;lt;set&amp;gt;&amp;gt;&lt;/p&gt;&lt;p style=&quot;margin:0px;margin-left:4px;&quot;&gt;&amp;nbsp; &amp;nbsp; + IsCorrect : bool &amp;lt;&amp;lt;get&amp;gt;&amp;gt; &amp;lt;&amp;lt;set&amp;gt;&amp;gt;&lt;/p&gt;&lt;p style=&quot;margin:0px;margin-left:4px;&quot;&gt;&amp;nbsp; &amp;nbsp; + Corrected : bool &amp;lt;&amp;lt;get&amp;gt;&amp;gt; &amp;lt;&amp;lt;set&amp;gt;&amp;gt;&lt;/p&gt;&lt;p style=&quot;margin:0px;margin-left:4px;&quot;&gt;&amp;nbsp; &amp;nbsp; + Timestamp : DateTime &amp;lt;&amp;lt;get&amp;gt;&amp;gt; &amp;lt;&amp;lt;set&amp;gt;&amp;gt;&lt;/p&gt;&lt;hr size=&quot;1&quot;&gt;&lt;p style=&quot;margin:0px;margin-left:4px;&quot;&gt;&lt;br&gt;&lt;/p&gt;" style="verticalAlign=top;align=left;overflow=fill;fontSize=12;fontFamily=Helvetica;html=1;rounded=0;shadow=0;comic=0;labelBackgroundColor=none;strokeWidth=1" parent="1" vertex="1">
          <mxGeometry x="192" y="164" width="257" height="140" as="geometry" />
        </mxCell>
        <mxCell id="BTasJADkef-aHpxUbXmq-2" value="&lt;p style=&quot;margin:0px;margin-top:4px;text-align:center;&quot;&gt;&lt;b&gt;DailyChallenge&lt;/b&gt;&lt;/p&gt;&lt;hr size=&quot;1&quot;&gt;&lt;p style=&quot;margin:0px;margin-left:4px;&quot;&gt;&amp;nbsp; &amp;nbsp;&amp;nbsp;&lt;span style=&quot;background-color: initial;&quot;&gt;+ Id : int &amp;lt;&amp;lt;get&amp;gt;&amp;gt; &amp;lt;&amp;lt;set&amp;gt;&amp;gt;&lt;/span&gt;&lt;br&gt;&lt;/p&gt;&lt;p style=&quot;margin:0px;margin-left:4px;&quot;&gt;&amp;nbsp; &amp;nbsp; + UserId : string &amp;lt;&amp;lt;get&amp;gt;&amp;gt; &amp;lt;&amp;lt;set&amp;gt;&amp;gt;&lt;/p&gt;&lt;p style=&quot;margin:0px;margin-left:4px;&quot;&gt;&amp;nbsp; &amp;nbsp; + LanguageId : int &amp;lt;&amp;lt;get&amp;gt;&amp;gt; &amp;lt;&amp;lt;set&amp;gt;&amp;gt;&lt;/p&gt;&lt;p style=&quot;margin:0px;margin-left:4px;&quot;&gt;&amp;nbsp; &amp;nbsp; + Words : List&amp;lt;Word&amp;gt; &amp;lt;&amp;lt;get&amp;gt;&amp;gt; &amp;lt;&amp;lt;set&amp;gt;&amp;gt;&lt;/p&gt;&lt;p style=&quot;margin:0px;margin-left:4px;&quot;&gt;&amp;nbsp; &amp;nbsp; + CreatedAt : DateTime &amp;lt;&amp;lt;get&amp;gt;&amp;gt; &amp;lt;&amp;lt;set&amp;gt;&amp;gt;&lt;/p&gt;&lt;p style=&quot;margin:0px;margin-left:4px;&quot;&gt;&amp;nbsp; &amp;nbsp; + IsCompleted : bool &amp;lt;&amp;lt;get&amp;gt;&amp;gt; &amp;lt;&amp;lt;set&amp;gt;&amp;gt; = false&lt;/p&gt;&lt;hr size=&quot;1&quot;&gt;&lt;p style=&quot;margin:0px;margin-left:4px;&quot;&gt;&lt;br&gt;&lt;/p&gt;" style="verticalAlign=top;align=left;overflow=fill;fontSize=12;fontFamily=Helvetica;html=1;rounded=0;shadow=0;comic=0;labelBackgroundColor=none;strokeWidth=1" parent="1" vertex="1">
          <mxGeometry x="192" y="328" width="281" height="141" as="geometry" />
        </mxCell>
        <mxCell id="BTasJADkef-aHpxUbXmq-3" value="&lt;p style=&quot;margin:0px;margin-top:4px;text-align:center;&quot;&gt;&lt;b&gt;Word&lt;/b&gt;&lt;/p&gt;&lt;hr size=&quot;1&quot;&gt;&lt;p style=&quot;margin:0px;margin-left:4px;&quot;&gt;&amp;nbsp; &amp;nbsp; +&lt;span style=&quot;background-color: initial;&quot;&gt;&amp;nbsp;Id : int &amp;lt;&amp;lt;get&amp;gt;&amp;gt; &amp;lt;&amp;lt;set&amp;gt;&amp;gt;&lt;/span&gt;&lt;br&gt;&lt;/p&gt;&lt;p style=&quot;margin:0px;margin-left:4px;&quot;&gt;&amp;nbsp; &amp;nbsp; + Original : string &amp;lt;&amp;lt;get&amp;gt;&amp;gt; &amp;lt;&amp;lt;set&amp;gt;&amp;gt;&lt;/p&gt;&lt;p style=&quot;margin:0px;margin-left:4px;&quot;&gt;&amp;nbsp; &amp;nbsp; + Translation : string &amp;lt;&amp;lt;get&amp;gt;&amp;gt; &amp;lt;&amp;lt;set&amp;gt;&amp;gt;&lt;/p&gt;&lt;p style=&quot;margin:0px;margin-left:4px;&quot;&gt;&amp;nbsp; &amp;nbsp; + LanguageId : int &amp;lt;&amp;lt;get&amp;gt;&amp;gt; &amp;lt;&amp;lt;set&amp;gt;&amp;gt;&lt;/p&gt;&lt;p style=&quot;margin:0px;margin-left:4px;&quot;&gt;&amp;nbsp; &amp;nbsp; + Language : Language? &amp;lt;&amp;lt;get&amp;gt;&amp;gt; &amp;lt;&amp;lt;set&amp;gt;&amp;gt;&lt;/p&gt;&lt;hr size=&quot;1&quot;&gt;&lt;p style=&quot;margin:0px;margin-left:4px;&quot;&gt;&lt;br&gt;&lt;/p&gt;" style="verticalAlign=top;align=left;overflow=fill;fontSize=12;fontFamily=Helvetica;html=1;rounded=0;shadow=0;comic=0;labelBackgroundColor=none;strokeWidth=1" parent="1" vertex="1">
          <mxGeometry x="505" y="328" width="257" height="124" as="geometry" />
        </mxCell>
        <mxCell id="BTasJADkef-aHpxUbXmq-4" value="&lt;p style=&quot;margin:0px;margin-top:4px;text-align:center;&quot;&gt;&lt;b&gt;LearningResult&lt;/b&gt;&lt;/p&gt;&lt;hr size=&quot;1&quot;&gt;&lt;p style=&quot;margin:0px;margin-left:4px;&quot;&gt;&amp;nbsp; &amp;nbsp; + IsCorrect : bool &amp;lt;&amp;lt;get&amp;gt;&amp;gt; &amp;lt;&amp;lt;set&amp;gt;&amp;gt;&lt;/p&gt;&lt;p style=&quot;margin:0px;margin-left:4px;&quot;&gt;&amp;nbsp; &amp;nbsp; + CorrectAnswer : string &amp;lt;&amp;lt;get&amp;gt;&amp;gt; &amp;lt;&amp;lt;set&amp;gt;&amp;gt;&lt;/p&gt;&lt;p style=&quot;margin:0px;margin-left:4px;&quot;&gt;&amp;nbsp; &amp;nbsp; + UserAnswer : string &amp;lt;&amp;lt;get&amp;gt;&amp;gt; &amp;lt;&amp;lt;set&amp;gt;&amp;gt;&lt;/p&gt;&lt;hr size=&quot;1&quot;&gt;&lt;p style=&quot;margin:0px;margin-left:4px;&quot;&gt;&lt;br&gt;&lt;/p&gt;" style="verticalAlign=top;align=left;overflow=fill;fontSize=12;fontFamily=Helvetica;html=1;rounded=0;shadow=0;comic=0;labelBackgroundColor=none;strokeWidth=1" parent="1" vertex="1">
          <mxGeometry x="505" y="164" width="257" height="96" as="geometry" />
        </mxCell>
        <mxCell id="BTasJADkef-aHpxUbXmq-5" value="&lt;p style=&quot;margin:0px;margin-top:4px;text-align:center;&quot;&gt;&lt;i&gt;&amp;lt;&amp;lt;Enum&amp;gt;&amp;gt;&lt;/i&gt;&lt;br&gt;&lt;/p&gt;&lt;p style=&quot;margin:0px;margin-top:4px;text-align:center;&quot;&gt;&lt;b&gt;Learning Mode&lt;/b&gt;&lt;/p&gt;&lt;hr size=&quot;1&quot;&gt;&lt;p style=&quot;margin:0px;margin-left:4px;&quot;&gt;&lt;span style=&quot;background-color: initial;&quot;&gt;Flashcards&lt;/span&gt;&lt;br&gt;&lt;/p&gt;&lt;p style=&quot;margin:0px;margin-left:4px;&quot;&gt;MultipleChoice&lt;/p&gt;&lt;p style=&quot;margin:0px;margin-left:4px;&quot;&gt;FillInTheBlank&lt;/p&gt;&lt;p style=&quot;margin:0px;margin-left:4px;&quot;&gt;&lt;br&gt;&lt;/p&gt;" style="verticalAlign=top;align=left;overflow=fill;fontSize=12;fontFamily=Helvetica;html=1;rounded=0;shadow=0;comic=0;labelBackgroundColor=none;strokeWidth=1" parent="1" vertex="1">
          <mxGeometry x="806" y="242" width="108" height="93.5" as="geometry" />
        </mxCell>
        <mxCell id="BTasJADkef-aHpxUbXmq-6" value="&lt;p style=&quot;margin:0px;margin-top:4px;text-align:center;&quot;&gt;&lt;b&gt;Language&lt;/b&gt;&lt;/p&gt;&lt;hr size=&quot;1&quot;&gt;&lt;p style=&quot;margin:0px;margin-left:4px;&quot;&gt;&amp;nbsp; &amp;nbsp; + Id : int &amp;lt;&amp;lt;get&amp;gt;&amp;gt; &amp;lt;&amp;lt;set&amp;gt;&amp;gt;&lt;/p&gt;&lt;p style=&quot;margin:0px;margin-left:4px;&quot;&gt;&amp;nbsp; &amp;nbsp; + Code : string &amp;lt;&amp;lt;get&amp;gt;&amp;gt; &amp;lt;&amp;lt;set&amp;gt;&amp;gt;&lt;/p&gt;&lt;p style=&quot;margin:0px;margin-left:4px;&quot;&gt;&amp;nbsp; &amp;nbsp; + Name : string &amp;lt;&amp;lt;get&amp;gt;&amp;gt; &amp;lt;&amp;lt;set&amp;gt;&amp;gt;&lt;/p&gt;&lt;p style=&quot;margin:0px;margin-left:4px;&quot;&gt;&amp;nbsp; &amp;nbsp; + Groups : ICollection&amp;lt;Group&amp;gt;? &amp;lt;&amp;lt;get&amp;gt;&amp;gt; &amp;lt;&amp;lt;set&amp;gt;&amp;gt;&lt;/p&gt;&lt;p style=&quot;margin:0px;margin-left:4px;&quot;&gt;&amp;nbsp; &amp;nbsp; + Words : ICollection&amp;lt;Word&amp;gt;? &amp;lt;&amp;lt;get&amp;gt;&amp;gt; &amp;lt;&amp;lt;set&amp;gt;&amp;gt;&lt;/p&gt;&lt;hr size=&quot;1&quot;&gt;&lt;p style=&quot;margin:0px;margin-left:4px;&quot;&gt;&lt;br&gt;&lt;/p&gt;" style="verticalAlign=top;align=left;overflow=fill;fontSize=12;fontFamily=Helvetica;html=1;rounded=0;shadow=0;comic=0;labelBackgroundColor=none;strokeWidth=1" parent="1" vertex="1">
          <mxGeometry x="600" y="532" width="308" height="126" as="geometry" />
        </mxCell>
        <mxCell id="BTasJADkef-aHpxUbXmq-7" value="&lt;p style=&quot;margin:0px;margin-top:4px;text-align:center;&quot;&gt;&lt;b&gt;GroupWord&lt;/b&gt;&lt;/p&gt;&lt;hr size=&quot;1&quot;&gt;&lt;p style=&quot;margin:0px;margin-left:4px;&quot;&gt;&amp;nbsp; &amp;nbsp;&amp;nbsp;&lt;span style=&quot;background-color: initial;&quot;&gt;+ GroupId : int &amp;lt;&amp;lt;get&amp;gt;&amp;gt; &amp;lt;&amp;lt;set&amp;gt;&amp;gt;&lt;/span&gt;&lt;br&gt;&lt;/p&gt;&lt;p style=&quot;margin:0px;margin-left:4px;&quot;&gt;&amp;nbsp; &amp;nbsp; + Group : Group? &amp;lt;&amp;lt;get&amp;gt;&amp;gt; &amp;lt;&amp;lt;set&amp;gt;&amp;gt;&lt;/p&gt;&lt;p style=&quot;margin:0px;margin-left:4px;&quot;&gt;&amp;nbsp; &amp;nbsp; + WordId : int &amp;lt;&amp;lt;get&amp;gt;&amp;gt; &amp;lt;&amp;lt;set&amp;gt;&amp;gt;&lt;/p&gt;&lt;p style=&quot;margin:0px;margin-left:4px;&quot;&gt;&amp;nbsp; &amp;nbsp; + Word : Word? &amp;lt;&amp;lt;get&amp;gt;&amp;gt; &amp;lt;&amp;lt;set&amp;gt;&amp;gt;&lt;/p&gt;&lt;hr size=&quot;1&quot;&gt;&lt;p style=&quot;margin:0px;margin-left:4px;&quot;&gt;&lt;br&gt;&lt;/p&gt;" style="verticalAlign=top;align=left;overflow=fill;fontSize=12;fontFamily=Helvetica;html=1;rounded=0;shadow=0;comic=0;labelBackgroundColor=none;strokeWidth=1" parent="1" vertex="1">
          <mxGeometry x="806" y="393" width="232" height="111" as="geometry" />
        </mxCell>
        <mxCell id="BTasJADkef-aHpxUbXmq-8" value="&lt;p style=&quot;margin:0px;margin-top:4px;text-align:center;&quot;&gt;&lt;b&gt;Group&lt;/b&gt;&lt;/p&gt;&lt;hr size=&quot;1&quot;&gt;&lt;p style=&quot;margin:0px;margin-left:4px;&quot;&gt;&amp;nbsp; &amp;nbsp;&amp;nbsp;&lt;span style=&quot;background-color: initial;&quot;&gt;+ Id : int &amp;lt;&amp;lt;get&amp;gt;&amp;gt; &amp;lt;&amp;lt;set&amp;gt;&amp;gt;&lt;/span&gt;&lt;br&gt;&lt;/p&gt;&lt;p style=&quot;margin:0px;margin-left:4px;&quot;&gt;&amp;nbsp; &amp;nbsp; + Name : string &amp;lt;&amp;lt;get&amp;gt;&amp;gt; &amp;lt;&amp;lt;set&amp;gt;&amp;gt;&lt;/p&gt;&lt;p style=&quot;margin:0px;margin-left:4px;&quot;&gt;&amp;nbsp; &amp;nbsp; + UserId : string &amp;lt;&amp;lt;get&amp;gt;&amp;gt; &amp;lt;&amp;lt;set&amp;gt;&amp;gt;&lt;/p&gt;&lt;p style=&quot;margin:0px;margin-left:4px;&quot;&gt;&amp;nbsp; &amp;nbsp; + LanguageId : int &amp;lt;&amp;lt;get&amp;gt;&amp;gt; &amp;lt;&amp;lt;set&amp;gt;&amp;gt;&lt;/p&gt;&lt;p style=&quot;margin:0px;margin-left:4px;&quot;&gt;&amp;nbsp; &amp;nbsp; + Language : Language &amp;lt;&amp;lt;get&amp;gt;&amp;gt; &amp;lt;&amp;lt;set&amp;gt;&amp;gt;&lt;/p&gt;&lt;p style=&quot;margin:0px;margin-left:4px;&quot;&gt;&amp;nbsp; &amp;nbsp; + GroupWords : ICollection&amp;lt;GroupWord&amp;gt; &amp;lt;&amp;lt;get&amp;gt;&amp;gt; &amp;lt;&amp;lt;set&amp;gt;&amp;gt;&lt;/p&gt;&lt;hr size=&quot;1&quot;&gt;&lt;p style=&quot;margin:0px;margin-left:4px;&quot;&gt;&lt;br&gt;&lt;/p&gt;" style="verticalAlign=top;align=left;overflow=fill;fontSize=12;fontFamily=Helvetica;html=1;rounded=0;shadow=0;comic=0;labelBackgroundColor=none;strokeWidth=1" parent="1" vertex="1">
          <mxGeometry x="192" y="492" width="365" height="139" as="geometry" />
        </mxCell>
        <mxCell id="fKr8kIdKR8H5jGHbH5O1-4" style="edgeStyle=orthogonalEdgeStyle;rounded=0;orthogonalLoop=1;jettySize=auto;html=1;" edge="1" parent="1" source="fKr8kIdKR8H5jGHbH5O1-2" target="fKr8kIdKR8H5jGHbH5O1-3">
          <mxGeometry relative="1" as="geometry" />
        </mxCell>
        <mxCell id="fKr8kIdKR8H5jGHbH5O1-34" style="edgeStyle=orthogonalEdgeStyle;rounded=0;orthogonalLoop=1;jettySize=auto;html=1;" edge="1" parent="1" source="fKr8kIdKR8H5jGHbH5O1-2" target="fKr8kIdKR8H5jGHbH5O1-20">
          <mxGeometry relative="1" as="geometry" />
        </mxCell>
        <mxCell id="fKr8kIdKR8H5jGHbH5O1-2" value="&lt;p style=&quot;margin:0px;margin-top:4px;text-align:center;&quot;&gt;&lt;b&gt;ActivityLogRepository&lt;/b&gt;&lt;/p&gt;&lt;hr size=&quot;1&quot;&gt;&lt;p style=&quot;margin:0px;margin-left:4px;&quot;&gt;&lt;br&gt;&lt;/p&gt;&lt;hr size=&quot;1&quot;&gt;&lt;p style=&quot;margin:0px;margin-left:4px;&quot;&gt;&amp;nbsp; &amp;nbsp; + ActivityLogRepository(context:ApplicationDbContext)&lt;/p&gt;&lt;p style=&quot;margin:0px;margin-left:4px;&quot;&gt;&amp;nbsp; &amp;nbsp; + &amp;lt;&amp;lt;async&amp;gt;&amp;gt; GetByUserIdAsync(userId:string) : Task&amp;lt;IEnumerable&amp;lt;ActivityLog&amp;gt;&amp;gt;&lt;/p&gt;&lt;p style=&quot;margin:0px;margin-left:4px;&quot;&gt;&amp;nbsp; &amp;nbsp; + &amp;lt;&amp;lt;async&amp;gt;&amp;gt; MarkAsCorrectedAsync(userId:string, wordId:int) : Task&lt;/p&gt;&lt;p style=&quot;margin:0px;margin-left:4px;&quot;&gt;&amp;nbsp; &amp;nbsp; + &amp;lt;&amp;lt;async&amp;gt;&amp;gt; GetRecentLogsAsync(userId:string, languageId:int, days:int) : Task&amp;lt;IEnumerable&amp;lt;ActivityLog&amp;gt;&amp;gt;&lt;/p&gt;" style="verticalAlign=top;align=left;overflow=fill;fontSize=12;fontFamily=Helvetica;html=1;rounded=0;shadow=0;comic=0;labelBackgroundColor=none;strokeWidth=1" vertex="1" parent="1">
          <mxGeometry x="1879" y="1826.5" width="610" height="121" as="geometry" />
        </mxCell>
        <mxCell id="fKr8kIdKR8H5jGHbH5O1-42" style="edgeStyle=orthogonalEdgeStyle;rounded=0;orthogonalLoop=1;jettySize=auto;html=1;" edge="1" parent="1" source="fKr8kIdKR8H5jGHbH5O1-3" target="fKr8kIdKR8H5jGHbH5O1-18">
          <mxGeometry relative="1" as="geometry">
            <Array as="points">
              <mxPoint x="1807" y="1731" />
              <mxPoint x="1807" y="2070" />
              <mxPoint x="1383" y="2070" />
            </Array>
          </mxGeometry>
        </mxCell>
        <mxCell id="fKr8kIdKR8H5jGHbH5O1-3" value="&lt;p style=&quot;margin:0px;margin-top:4px;text-align:center;&quot;&gt;&lt;b&gt;IActivityLogRepository&lt;/b&gt;&lt;/p&gt;&lt;hr size=&quot;1&quot;&gt;&lt;p style=&quot;margin:0px;margin-left:4px;&quot;&gt;&lt;br&gt;&lt;/p&gt;&lt;hr size=&quot;1&quot;&gt;&lt;p style=&quot;margin:0px;margin-left:4px;&quot;&gt;&lt;span style=&quot;background-color: initial;&quot;&gt;&amp;nbsp; &amp;nbsp; &amp;lt;&amp;lt;async&amp;gt;&amp;gt; GetByUserIdAsync(userId:string) : Task&amp;lt;IEnumerable&amp;lt;ActivityLog&amp;gt;&amp;gt;&lt;/span&gt;&lt;br&gt;&lt;/p&gt;&lt;p style=&quot;margin:0px;margin-left:4px;&quot;&gt;&amp;nbsp; &amp;nbsp; &amp;lt;&amp;lt;async&amp;gt;&amp;gt; MarkAsCorrectedAsync(userId:string, wordId:int) : Task&lt;/p&gt;&lt;p style=&quot;margin:0px;margin-left:4px;&quot;&gt;&amp;nbsp; &amp;nbsp; &amp;lt;&amp;lt;async&amp;gt;&amp;gt; GetRecentLogsAsync(userId:string, languageId:int, days:int) : Task&amp;lt;IEnumerable&amp;lt;ActivityLog&amp;gt;&amp;gt;&lt;/p&gt;" style="verticalAlign=top;align=left;overflow=fill;fontSize=12;fontFamily=Helvetica;html=1;rounded=0;shadow=0;comic=0;labelBackgroundColor=none;strokeWidth=1" vertex="1" parent="1">
          <mxGeometry x="1882" y="1670" width="604" height="121" as="geometry" />
        </mxCell>
        <mxCell id="fKr8kIdKR8H5jGHbH5O1-26" style="edgeStyle=orthogonalEdgeStyle;rounded=0;orthogonalLoop=1;jettySize=auto;html=1;" edge="1" parent="1" source="fKr8kIdKR8H5jGHbH5O1-5" target="fKr8kIdKR8H5jGHbH5O1-19">
          <mxGeometry relative="1" as="geometry" />
        </mxCell>
        <mxCell id="fKr8kIdKR8H5jGHbH5O1-5" value="&lt;p style=&quot;margin:0px;margin-top:4px;text-align:center;&quot;&gt;&lt;b&gt;CachedWordRepository&lt;/b&gt;&lt;/p&gt;&lt;hr size=&quot;1&quot;&gt;&lt;p style=&quot;margin:0px;margin-left:4px;&quot;&gt;&amp;nbsp; &amp;nbsp; - &amp;lt;&amp;lt;readonly&amp;gt;&amp;gt; _innerRepository : IWordRepository&lt;/p&gt;&lt;p style=&quot;margin:0px;margin-left:4px;&quot;&gt;&amp;nbsp; &amp;nbsp; - &amp;lt;&amp;lt;readonly&amp;gt;&amp;gt; _cache : IMemoryCache&lt;/p&gt;&lt;p style=&quot;margin:0px;margin-left:4px;&quot;&gt;&amp;nbsp; &amp;nbsp; - &amp;lt;&amp;lt;readonly&amp;gt;&amp;gt; _logger : ILogger&amp;lt;CachedWordRepositoryProxy&amp;gt;&lt;/p&gt;&lt;p style=&quot;margin:0px;margin-left:4px;&quot;&gt;&amp;nbsp; &amp;nbsp; - &amp;lt;&amp;lt;readonly&amp;gt;&amp;gt; _cacheOptions : MemoryCacheEntryOptions&lt;/p&gt;&lt;hr size=&quot;1&quot;&gt;&lt;p style=&quot;margin:0px;margin-left:4px;&quot;&gt;&amp;nbsp; &amp;nbsp; + CachedWordRepositoryProxy(innerRepository:IWordRepository, cache:IMemoryCache, logger:ILogger&amp;lt;CachedWordRepositoryProxy&amp;gt;)&lt;/p&gt;&lt;p style=&quot;margin:0px;margin-left:4px;&quot;&gt;&amp;nbsp; &amp;nbsp; + &amp;lt;&amp;lt;async&amp;gt;&amp;gt; AddAsync(entity:Word) : Task&lt;/p&gt;&lt;p style=&quot;margin:0px;margin-left:4px;&quot;&gt;&amp;nbsp; &amp;nbsp; + &amp;lt;&amp;lt;async&amp;gt;&amp;gt; AddRangeAsync(entities:IEnumerable&amp;lt;Word&amp;gt;) : Task&lt;/p&gt;&lt;p style=&quot;margin:0px;margin-left:4px;&quot;&gt;&amp;nbsp; &amp;nbsp; + &amp;lt;&amp;lt;async&amp;gt;&amp;gt; FindAsync(predicate:Expression&amp;lt;Func&amp;lt;Word, bool&amp;gt;&amp;gt;, includes:Expression&amp;lt;Func&amp;lt;Word, object&amp;gt;&amp;gt;[]) : Task&amp;lt;IEnumerable&amp;lt;Word&amp;gt;&amp;gt;&lt;/p&gt;&lt;p style=&quot;margin:0px;margin-left:4px;&quot;&gt;&amp;nbsp; &amp;nbsp; + &amp;lt;&amp;lt;async&amp;gt;&amp;gt; GetAllAsync() : Task&amp;lt;IEnumerable&amp;lt;Word&amp;gt;&amp;gt;&lt;/p&gt;&lt;p style=&quot;margin:0px;margin-left:4px;&quot;&gt;&amp;nbsp; &amp;nbsp; + &amp;lt;&amp;lt;async&amp;gt;&amp;gt; GetByIdAsync(id:int, includes:Expression&amp;lt;Func&amp;lt;Word, object&amp;gt;&amp;gt;[]) : Task&amp;lt;Word?&amp;gt;&lt;/p&gt;&lt;p style=&quot;margin:0px;margin-left:4px;&quot;&gt;&amp;nbsp; &amp;nbsp; + Remove(entity:Word) : void&lt;/p&gt;&lt;p style=&quot;margin:0px;margin-left:4px;&quot;&gt;&amp;nbsp; &amp;nbsp; + &amp;lt;&amp;lt;async&amp;gt;&amp;gt; SaveChangesAsync() : Task&lt;/p&gt;&lt;p style=&quot;margin:0px;margin-left:4px;&quot;&gt;&amp;nbsp; &amp;nbsp; + &amp;lt;&amp;lt;async&amp;gt;&amp;gt; GetPaginatedAsync(page:int, pageSize:int) : Task&amp;lt;(IEnumerable&amp;lt;Word&amp;gt; Words, int TotalCount)&amp;gt;&lt;/p&gt;&lt;p style=&quot;margin:0px;margin-left:4px;&quot;&gt;&amp;nbsp; &amp;nbsp; + &amp;lt;&amp;lt;async&amp;gt;&amp;gt; GetRandomWordsAsync(excludedWordId:int, count:int) : Task&amp;lt;List&amp;lt;Word&amp;gt;&amp;gt;&lt;/p&gt;" style="verticalAlign=top;align=left;overflow=fill;fontSize=12;fontFamily=Helvetica;html=1;rounded=0;shadow=0;comic=0;labelBackgroundColor=none;strokeWidth=1" vertex="1" parent="1">
          <mxGeometry x="201" y="2089" width="793" height="249" as="geometry" />
        </mxCell>
        <mxCell id="fKr8kIdKR8H5jGHbH5O1-11" style="edgeStyle=orthogonalEdgeStyle;rounded=0;orthogonalLoop=1;jettySize=auto;html=1;" edge="1" parent="1" source="fKr8kIdKR8H5jGHbH5O1-6" target="fKr8kIdKR8H5jGHbH5O1-10">
          <mxGeometry relative="1" as="geometry" />
        </mxCell>
        <mxCell id="fKr8kIdKR8H5jGHbH5O1-36" style="edgeStyle=orthogonalEdgeStyle;rounded=0;orthogonalLoop=1;jettySize=auto;html=1;" edge="1" parent="1" source="fKr8kIdKR8H5jGHbH5O1-6" target="fKr8kIdKR8H5jGHbH5O1-20">
          <mxGeometry relative="1" as="geometry" />
        </mxCell>
        <mxCell id="fKr8kIdKR8H5jGHbH5O1-6" value="&lt;p style=&quot;margin:0px;margin-top:4px;text-align:center;&quot;&gt;&lt;b&gt;DailyChallengeRepository&lt;/b&gt;&lt;/p&gt;&lt;hr size=&quot;1&quot;&gt;&lt;p style=&quot;margin:0px;margin-left:4px;&quot;&gt;&lt;br&gt;&lt;/p&gt;&lt;hr size=&quot;1&quot;&gt;&lt;p style=&quot;margin:0px;margin-left:4px;&quot;&gt;&amp;nbsp; &amp;nbsp; + DailyChallengeRepository(context:ApplicationDbContext)&lt;/p&gt;&lt;p style=&quot;margin:0px;margin-left:4px;&quot;&gt;&amp;nbsp; &amp;nbsp; + &amp;lt;&amp;lt;async&amp;gt;&amp;gt; GetActiveChallengeAsync(userId:string, languageId:int) : Task&amp;lt;DailyChallenge?&amp;gt;&lt;/p&gt;&lt;p style=&quot;margin:0px;margin-left:4px;&quot;&gt;&amp;nbsp; &amp;nbsp; + &amp;lt;&amp;lt;async&amp;gt;&amp;gt; MarkAsCompletedAsync(challengeId:int) : Task&lt;/p&gt;" style="verticalAlign=top;align=left;overflow=fill;fontSize=12;fontFamily=Helvetica;html=1;rounded=0;shadow=0;comic=0;labelBackgroundColor=none;strokeWidth=1" vertex="1" parent="1">
          <mxGeometry x="1137" y="2412" width="528" height="114" as="geometry" />
        </mxCell>
        <mxCell id="fKr8kIdKR8H5jGHbH5O1-13" style="edgeStyle=orthogonalEdgeStyle;rounded=0;orthogonalLoop=1;jettySize=auto;html=1;" edge="1" parent="1" source="fKr8kIdKR8H5jGHbH5O1-7" target="fKr8kIdKR8H5jGHbH5O1-12">
          <mxGeometry relative="1" as="geometry" />
        </mxCell>
        <mxCell id="fKr8kIdKR8H5jGHbH5O1-7" value="&lt;p style=&quot;margin:0px;margin-top:4px;text-align:center;&quot;&gt;&lt;b&gt;GroupRepository&lt;/b&gt;&lt;/p&gt;&lt;hr size=&quot;1&quot;&gt;&lt;p style=&quot;margin:0px;margin-left:4px;&quot;&gt;&lt;br&gt;&lt;/p&gt;&lt;hr size=&quot;1&quot;&gt;&lt;p style=&quot;margin:0px;margin-left:4px;&quot;&gt;&amp;nbsp; &amp;nbsp; + GroupRepository(context:ApplicationDbContext)&lt;/p&gt;&lt;p style=&quot;margin:0px;margin-left:4px;&quot;&gt;&amp;nbsp; &amp;nbsp; + &amp;lt;&amp;lt;async&amp;gt;&amp;gt; GetGroupsWithLanguageAsync(userId:string, languageId:int) : Task&amp;lt;IEnumerable&amp;lt;Group&amp;gt;&amp;gt;&lt;/p&gt;&lt;p style=&quot;margin:0px;margin-left:4px;&quot;&gt;&amp;nbsp; &amp;nbsp; + &amp;lt;&amp;lt;async&amp;gt;&amp;gt; GetGroupWithDetailsAsync(groupId:int) : Task&amp;lt;Group?&amp;gt;&lt;/p&gt;" style="verticalAlign=top;align=left;overflow=fill;fontSize=12;fontFamily=Helvetica;html=1;rounded=0;shadow=0;comic=0;labelBackgroundColor=none;strokeWidth=1" vertex="1" parent="1">
          <mxGeometry x="807" y="1748" width="590" height="114" as="geometry" />
        </mxCell>
        <mxCell id="fKr8kIdKR8H5jGHbH5O1-37" style="edgeStyle=orthogonalEdgeStyle;rounded=0;orthogonalLoop=1;jettySize=auto;html=1;" edge="1" parent="1" source="fKr8kIdKR8H5jGHbH5O1-10" target="fKr8kIdKR8H5jGHbH5O1-18">
          <mxGeometry relative="1" as="geometry">
            <Array as="points">
              <mxPoint x="1097" y="2642" />
            </Array>
          </mxGeometry>
        </mxCell>
        <mxCell id="fKr8kIdKR8H5jGHbH5O1-10" value="&lt;p style=&quot;margin:0px;margin-top:4px;text-align:center;&quot;&gt;&lt;b&gt;IDailyChallengeRepository&lt;/b&gt;&lt;/p&gt;&lt;hr size=&quot;1&quot;&gt;&lt;p style=&quot;margin:0px;margin-left:4px;&quot;&gt;&lt;br&gt;&lt;/p&gt;&lt;hr size=&quot;1&quot;&gt;&lt;p style=&quot;margin:0px;margin-left:4px;&quot;&gt;&lt;span style=&quot;background-color: initial;&quot;&gt;&amp;nbsp; &amp;nbsp; &amp;lt;&amp;lt;async&amp;gt;&amp;gt; GetActiveChallengeAsync(userId:string, languageId:int) : Task&amp;lt;DailyChallenge?&amp;gt;&lt;/span&gt;&lt;br&gt;&lt;/p&gt;&lt;p style=&quot;margin:0px;margin-left:4px;&quot;&gt;&amp;nbsp; &amp;nbsp; &amp;lt;&amp;lt;async&amp;gt;&amp;gt; MarkAsCompletedAsync(challengeId:int) : Task&lt;/p&gt;" style="verticalAlign=top;align=left;overflow=fill;fontSize=12;fontFamily=Helvetica;html=1;rounded=0;shadow=0;comic=0;labelBackgroundColor=none;strokeWidth=1" vertex="1" parent="1">
          <mxGeometry x="1137" y="2593" width="528" height="97" as="geometry" />
        </mxCell>
        <mxCell id="fKr8kIdKR8H5jGHbH5O1-40" style="edgeStyle=orthogonalEdgeStyle;rounded=0;orthogonalLoop=1;jettySize=auto;html=1;" edge="1" parent="1" source="fKr8kIdKR8H5jGHbH5O1-12" target="fKr8kIdKR8H5jGHbH5O1-18">
          <mxGeometry relative="1" as="geometry" />
        </mxCell>
        <mxCell id="fKr8kIdKR8H5jGHbH5O1-12" value="&lt;p style=&quot;margin:0px;margin-top:4px;text-align:center;&quot;&gt;&lt;b&gt;IGroupRepository&lt;/b&gt;&lt;/p&gt;&lt;hr size=&quot;1&quot;&gt;&lt;p style=&quot;margin:0px;margin-left:4px;&quot;&gt;&lt;br&gt;&lt;/p&gt;&lt;hr size=&quot;1&quot;&gt;&lt;p style=&quot;margin:0px;margin-left:4px;&quot;&gt;&lt;span style=&quot;background-color: initial;&quot;&gt;&amp;nbsp; &amp;nbsp; &amp;lt;&amp;lt;async&amp;gt;&amp;gt; GetGroupsWithLanguageAsync(userId:string, languageId:int) : Task&amp;lt;IEnumerable&amp;lt;Group&amp;gt;&amp;gt;&lt;/span&gt;&lt;br&gt;&lt;/p&gt;&lt;p style=&quot;margin:0px;margin-left:4px;&quot;&gt;&amp;nbsp; &amp;nbsp; &amp;lt;&amp;lt;async&amp;gt;&amp;gt; GetGroupWithDetailsAsync(groupId:int) : Task&amp;lt;Group?&amp;gt;&lt;/p&gt;" style="verticalAlign=top;align=left;overflow=fill;fontSize=12;fontFamily=Helvetica;html=1;rounded=0;shadow=0;comic=0;labelBackgroundColor=none;strokeWidth=1" vertex="1" parent="1">
          <mxGeometry x="808.5" y="1922" width="587" height="97" as="geometry" />
        </mxCell>
        <mxCell id="fKr8kIdKR8H5jGHbH5O1-43" style="edgeStyle=orthogonalEdgeStyle;rounded=0;orthogonalLoop=1;jettySize=auto;html=1;" edge="1" parent="1" source="fKr8kIdKR8H5jGHbH5O1-14" target="fKr8kIdKR8H5jGHbH5O1-18">
          <mxGeometry relative="1" as="geometry">
            <Array as="points">
              <mxPoint x="1611" y="2069" />
              <mxPoint x="1383" y="2069" />
            </Array>
          </mxGeometry>
        </mxCell>
        <mxCell id="fKr8kIdKR8H5jGHbH5O1-14" value="&lt;p style=&quot;margin:0px;margin-top:4px;text-align:center;&quot;&gt;&lt;b&gt;ILanguageRepository&lt;/b&gt;&lt;/p&gt;&lt;hr size=&quot;1&quot;&gt;&lt;p style=&quot;margin:0px;margin-left:4px;&quot;&gt;&lt;br&gt;&lt;/p&gt;&lt;hr size=&quot;1&quot;&gt;&lt;p style=&quot;margin:0px;margin-left:4px;&quot;&gt;&lt;br&gt;&lt;/p&gt;" style="verticalAlign=top;align=left;overflow=fill;fontSize=12;fontFamily=Helvetica;html=1;rounded=0;shadow=0;comic=0;labelBackgroundColor=none;strokeWidth=1" vertex="1" parent="1">
          <mxGeometry x="1503.5" y="1922" width="216" height="75" as="geometry" />
        </mxCell>
        <mxCell id="fKr8kIdKR8H5jGHbH5O1-17" style="edgeStyle=orthogonalEdgeStyle;rounded=0;orthogonalLoop=1;jettySize=auto;html=1;" edge="1" parent="1" source="fKr8kIdKR8H5jGHbH5O1-16" target="fKr8kIdKR8H5jGHbH5O1-14">
          <mxGeometry relative="1" as="geometry" />
        </mxCell>
        <mxCell id="fKr8kIdKR8H5jGHbH5O1-16" value="&lt;p style=&quot;margin:0px;margin-top:4px;text-align:center;&quot;&gt;&lt;b&gt;LanguageRepository&lt;/b&gt;&lt;/p&gt;&lt;hr size=&quot;1&quot;&gt;&lt;p style=&quot;margin:0px;margin-left:4px;&quot;&gt;&lt;br&gt;&lt;/p&gt;&lt;hr size=&quot;1&quot;&gt;&lt;p style=&quot;margin:0px;margin-left:4px;&quot;&gt;&amp;nbsp; &amp;nbsp; + LanguageRepository(context:ApplicationDbContext)&lt;br&gt;&lt;/p&gt;" style="verticalAlign=top;align=left;overflow=fill;fontSize=12;fontFamily=Helvetica;html=1;rounded=0;shadow=0;comic=0;labelBackgroundColor=none;strokeWidth=1" vertex="1" parent="1">
          <mxGeometry x="1452.5" y="1751" width="318" height="81" as="geometry" />
        </mxCell>
        <mxCell id="fKr8kIdKR8H5jGHbH5O1-18" value="&lt;p style=&quot;margin:0px;margin-top:4px;text-align:center;&quot;&gt;&lt;b&gt;IRepository&lt;/b&gt;&lt;/p&gt;&lt;hr size=&quot;1&quot;&gt;&lt;p style=&quot;margin:0px;margin-left:4px;&quot;&gt;&lt;br&gt;&lt;/p&gt;&lt;hr size=&quot;1&quot;&gt;&lt;p style=&quot;margin:0px;margin-left:4px;&quot;&gt;&amp;nbsp; &amp;nbsp; GetByIdAsync(id:int, includes:Expression&amp;lt;Func&amp;lt;T, object&amp;gt;&amp;gt;[]) : Task&amp;lt;T?&amp;gt;&lt;/p&gt;&lt;p style=&quot;margin:0px;margin-left:4px;&quot;&gt;&amp;nbsp; &amp;nbsp; GetAllAsync() : Task&amp;lt;IEnumerable&amp;lt;T&amp;gt;&amp;gt;&lt;/p&gt;&lt;p style=&quot;margin:0px;margin-left:4px;&quot;&gt;&amp;nbsp; &amp;nbsp; FindAsync(predicate:Expression&amp;lt;Func&amp;lt;T, bool&amp;gt;&amp;gt;, includes:Expression&amp;lt;Func&amp;lt;T, object&amp;gt;&amp;gt;[]) : Task&amp;lt;IEnumerable&amp;lt;T&amp;gt;&amp;gt;&lt;/p&gt;&lt;p style=&quot;margin:0px;margin-left:4px;&quot;&gt;&amp;nbsp; &amp;nbsp; AddAsync(entity:T) : Task&lt;/p&gt;&lt;p style=&quot;margin:0px;margin-left:4px;&quot;&gt;&amp;nbsp; &amp;nbsp; AddRangeAsync(entities:IEnumerable&amp;lt;T&amp;gt;) : Task&lt;/p&gt;&lt;p style=&quot;margin:0px;margin-left:4px;&quot;&gt;&amp;nbsp; &amp;nbsp; Remove(entity:T) : void&lt;/p&gt;&lt;p style=&quot;margin:0px;margin-left:4px;&quot;&gt;&amp;nbsp; &amp;nbsp; SaveChangesAsync() : Task&lt;/p&gt;" style="verticalAlign=top;align=left;overflow=fill;fontSize=12;fontFamily=Helvetica;html=1;rounded=0;shadow=0;comic=0;labelBackgroundColor=none;strokeWidth=1" vertex="1" parent="1">
          <mxGeometry x="1055" y="2119" width="656" height="164" as="geometry" />
        </mxCell>
        <mxCell id="fKr8kIdKR8H5jGHbH5O1-38" style="edgeStyle=orthogonalEdgeStyle;rounded=0;orthogonalLoop=1;jettySize=auto;html=1;" edge="1" parent="1" source="fKr8kIdKR8H5jGHbH5O1-19" target="fKr8kIdKR8H5jGHbH5O1-18">
          <mxGeometry relative="1" as="geometry">
            <Array as="points">
              <mxPoint x="1383" y="2392" />
            </Array>
          </mxGeometry>
        </mxCell>
        <mxCell id="fKr8kIdKR8H5jGHbH5O1-19" value="&lt;p style=&quot;margin:0px;margin-top:4px;text-align:center;&quot;&gt;&lt;b&gt;IWordRepository&lt;/b&gt;&lt;/p&gt;&lt;hr size=&quot;1&quot;&gt;&lt;p style=&quot;margin:0px;margin-left:4px;&quot;&gt;&amp;nbsp;&lt;br&gt;&lt;/p&gt;&lt;hr size=&quot;1&quot;&gt;&lt;p style=&quot;margin:0px;margin-left:4px;&quot;&gt;&amp;nbsp;&lt;span style=&quot;background-color: initial;&quot;&gt;&amp;nbsp; &amp;nbsp; GetPaginatedAsync(page:int, pageSize:int) : Task&amp;lt;(IEnumerable&amp;lt;Word&amp;gt; Words, int TotalCount)&amp;gt;&lt;/span&gt;&lt;br&gt;&lt;/p&gt;&lt;p style=&quot;margin:0px;margin-left:4px;&quot;&gt;&amp;nbsp; &amp;nbsp; GetRandomWordsAsync(excludedWordId:int, count:int) : Task&amp;lt;List&amp;lt;Word&amp;gt;&amp;gt;&lt;/p&gt;" style="verticalAlign=top;align=left;overflow=fill;fontSize=12;fontFamily=Helvetica;html=1;rounded=0;shadow=0;comic=0;labelBackgroundColor=none;strokeWidth=1" vertex="1" parent="1">
          <mxGeometry x="321" y="2382" width="553" height="100" as="geometry" />
        </mxCell>
        <mxCell id="fKr8kIdKR8H5jGHbH5O1-31" style="edgeStyle=orthogonalEdgeStyle;rounded=0;orthogonalLoop=1;jettySize=auto;html=1;entryX=1;entryY=0.5;entryDx=0;entryDy=0;" edge="1" parent="1" source="fKr8kIdKR8H5jGHbH5O1-20" target="fKr8kIdKR8H5jGHbH5O1-18">
          <mxGeometry relative="1" as="geometry" />
        </mxCell>
        <mxCell id="fKr8kIdKR8H5jGHbH5O1-20" value="&lt;p style=&quot;margin:0px;margin-top:4px;text-align:center;&quot;&gt;&lt;b&gt;Repository&lt;/b&gt;&lt;/p&gt;&lt;hr size=&quot;1&quot;&gt;&lt;p style=&quot;margin:0px;margin-left:4px;&quot;&gt;&amp;nbsp; &amp;nbsp; - # &amp;lt;&amp;lt;readonly&amp;gt;&amp;gt; _context : ApplicationDbContext&lt;/p&gt;&lt;p style=&quot;margin:0px;margin-left:4px;&quot;&gt;&amp;nbsp; &amp;nbsp; - # &amp;lt;&amp;lt;readonly&amp;gt;&amp;gt; _dbSet : DbSet&amp;lt;T&amp;gt;&lt;/p&gt;&lt;hr size=&quot;1&quot;&gt;&lt;p style=&quot;margin:0px;margin-left:4px;&quot;&gt;&amp;nbsp; &amp;nbsp; + Repository(context:ApplicationDbContext)&lt;/p&gt;&lt;p style=&quot;margin:0px;margin-left:4px;&quot;&gt;&amp;nbsp; &amp;nbsp; + &amp;lt;&amp;lt;async&amp;gt;&amp;gt; GetByIdAsync(id:int, includes:Expression&amp;lt;Func&amp;lt;T, object&amp;gt;&amp;gt;[]) : Task&amp;lt;T?&amp;gt;&lt;/p&gt;&lt;p style=&quot;margin:0px;margin-left:4px;&quot;&gt;&amp;nbsp; &amp;nbsp; + &amp;lt;&amp;lt;async&amp;gt;&amp;gt; GetAllAsync() : Task&amp;lt;IEnumerable&amp;lt;T&amp;gt;&amp;gt;&lt;/p&gt;&lt;p style=&quot;margin:0px;margin-left:4px;&quot;&gt;&amp;nbsp; &amp;nbsp; + &amp;lt;&amp;lt;async&amp;gt;&amp;gt; FindAsync(predicate:Expression&amp;lt;Func&amp;lt;T, bool&amp;gt;&amp;gt;, includes:Expression&amp;lt;Func&amp;lt;T, object&amp;gt;&amp;gt;[]) : Task&amp;lt;IEnumerable&amp;lt;T&amp;gt;&amp;gt;&lt;/p&gt;&lt;p style=&quot;margin:0px;margin-left:4px;&quot;&gt;&amp;nbsp; &amp;nbsp; + &amp;lt;&amp;lt;async&amp;gt;&amp;gt; AddAsync(entity:T) : Task&lt;/p&gt;&lt;p style=&quot;margin:0px;margin-left:4px;&quot;&gt;&amp;nbsp; &amp;nbsp; + &amp;lt;&amp;lt;virtual&amp;gt;&amp;gt; &amp;lt;&amp;lt;async&amp;gt;&amp;gt; AddRangeAsync(entities:IEnumerable&amp;lt;T&amp;gt;) : Task&lt;/p&gt;&lt;p style=&quot;margin:0px;margin-left:4px;&quot;&gt;&amp;nbsp; &amp;nbsp; + Remove(entity:T) : void&lt;/p&gt;&lt;p style=&quot;margin:0px;margin-left:4px;&quot;&gt;&amp;nbsp; &amp;nbsp; + &amp;lt;&amp;lt;async&amp;gt;&amp;gt; SaveChangesAsync() : Task&lt;/p&gt;" style="verticalAlign=top;align=left;overflow=fill;fontSize=12;fontFamily=Helvetica;html=1;rounded=0;shadow=0;comic=0;labelBackgroundColor=none;strokeWidth=1" vertex="1" parent="1">
          <mxGeometry x="1822" y="2105" width="724" height="194" as="geometry" />
        </mxCell>
        <mxCell id="fKr8kIdKR8H5jGHbH5O1-23" style="edgeStyle=orthogonalEdgeStyle;rounded=0;orthogonalLoop=1;jettySize=auto;html=1;" edge="1" parent="1" source="fKr8kIdKR8H5jGHbH5O1-22" target="fKr8kIdKR8H5jGHbH5O1-19">
          <mxGeometry relative="1" as="geometry" />
        </mxCell>
        <mxCell id="fKr8kIdKR8H5jGHbH5O1-39" style="edgeStyle=orthogonalEdgeStyle;rounded=0;orthogonalLoop=1;jettySize=auto;html=1;" edge="1" parent="1" source="fKr8kIdKR8H5jGHbH5O1-22" target="fKr8kIdKR8H5jGHbH5O1-20">
          <mxGeometry relative="1" as="geometry">
            <Array as="points">
              <mxPoint x="598" y="2733" />
              <mxPoint x="2184" y="2733" />
            </Array>
          </mxGeometry>
        </mxCell>
        <mxCell id="fKr8kIdKR8H5jGHbH5O1-22" value="&lt;p style=&quot;margin:0px;margin-top:4px;text-align:center;&quot;&gt;&lt;b&gt;WordRepository&lt;/b&gt;&lt;/p&gt;&lt;hr size=&quot;1&quot;&gt;&lt;p style=&quot;margin:0px;margin-left:4px;&quot;&gt;&amp;nbsp;&lt;br&gt;&lt;/p&gt;&lt;hr size=&quot;1&quot;&gt;&lt;p style=&quot;margin:0px;margin-left:4px;&quot;&gt;&amp;nbsp; &amp;nbsp; + WordRepository(context:ApplicationDbContext)&lt;/p&gt;&lt;p style=&quot;margin:0px;margin-left:4px;&quot;&gt;&amp;nbsp; &amp;nbsp; + &amp;lt;&amp;lt;async&amp;gt;&amp;gt; GetPaginatedAsync(page:int, pageSize:int) : Task&amp;lt;(IEnumerable&amp;lt;Word&amp;gt; Words, int TotalCount)&amp;gt;&lt;/p&gt;&lt;p style=&quot;margin:0px;margin-left:4px;&quot;&gt;&amp;nbsp; &amp;nbsp; + &amp;lt;&amp;lt;async&amp;gt;&amp;gt; GetRandomWordsAsync(excludedWordId:int, count:int) : Task&amp;lt;List&amp;lt;Word&amp;gt;&amp;gt;&lt;/p&gt;" style="verticalAlign=top;align=left;overflow=fill;fontSize=12;fontFamily=Helvetica;html=1;rounded=0;shadow=0;comic=0;labelBackgroundColor=none;strokeWidth=1" vertex="1" parent="1">
          <mxGeometry x="290" y="2538" width="615" height="106" as="geometry" />
        </mxCell>
        <mxCell id="fKr8kIdKR8H5jGHbH5O1-46" style="edgeStyle=orthogonalEdgeStyle;rounded=0;orthogonalLoop=1;jettySize=auto;html=1;" edge="1" parent="1" source="fKr8kIdKR8H5jGHbH5O1-44" target="fKr8kIdKR8H5jGHbH5O1-45">
          <mxGeometry relative="1" as="geometry" />
        </mxCell>
        <mxCell id="fKr8kIdKR8H5jGHbH5O1-44" value="&lt;p style=&quot;margin:0px;margin-top:4px;text-align:center;&quot;&gt;&lt;b&gt;ApplicationDbContext&lt;/b&gt;&lt;/p&gt;&lt;hr size=&quot;1&quot;&gt;&lt;p style=&quot;margin:0px;margin-left:4px;&quot;&gt;&amp;nbsp; &amp;nbsp; + Groups : DbSet&amp;lt;Group&amp;gt; &amp;lt;&amp;lt;get&amp;gt;&amp;gt; &amp;lt;&amp;lt;set&amp;gt;&amp;gt;&lt;/p&gt;&lt;p style=&quot;margin:0px;margin-left:4px;&quot;&gt;&amp;nbsp; &amp;nbsp; + GroupWords : DbSet&amp;lt;GroupWord&amp;gt; &amp;lt;&amp;lt;get&amp;gt;&amp;gt; &amp;lt;&amp;lt;set&amp;gt;&amp;gt;&lt;/p&gt;&lt;p style=&quot;margin:0px;margin-left:4px;&quot;&gt;&amp;nbsp; &amp;nbsp; + Languages : DbSet&amp;lt;Language&amp;gt; &amp;lt;&amp;lt;get&amp;gt;&amp;gt; &amp;lt;&amp;lt;set&amp;gt;&amp;gt;&lt;/p&gt;&lt;p style=&quot;margin:0px;margin-left:4px;&quot;&gt;&amp;nbsp; &amp;nbsp; + Words : DbSet&amp;lt;Word&amp;gt; &amp;lt;&amp;lt;get&amp;gt;&amp;gt; &amp;lt;&amp;lt;set&amp;gt;&amp;gt;&lt;/p&gt;&lt;p style=&quot;margin:0px;margin-left:4px;&quot;&gt;&amp;nbsp; &amp;nbsp; + ActivityLogs : DbSet&amp;lt;ActivityLog&amp;gt; &amp;lt;&amp;lt;get&amp;gt;&amp;gt; &amp;lt;&amp;lt;set&amp;gt;&amp;gt;&lt;/p&gt;&lt;p style=&quot;margin:0px;margin-left:4px;&quot;&gt;&amp;nbsp; &amp;nbsp; + DailyChallenges : DbSet&amp;lt;DailyChallenge&amp;gt; &amp;lt;&amp;lt;get&amp;gt;&amp;gt; &amp;lt;&amp;lt;set&amp;gt;&amp;gt;&lt;/p&gt;&lt;hr size=&quot;1&quot;&gt;&lt;p style=&quot;margin:0px;margin-left:4px;&quot;&gt;&amp;nbsp; &amp;nbsp; + ApplicationDbContext(options:DbContextOptions&amp;lt;ApplicationDbContext&amp;gt;)&lt;/p&gt;&lt;p style=&quot;margin:0px;margin-left:4px;&quot;&gt;&amp;nbsp; &amp;nbsp; # &amp;lt;&amp;lt;override&amp;gt;&amp;gt; OnModelCreating(modelBuilder:ModelBuilder) : void&lt;/p&gt;" style="verticalAlign=top;align=left;overflow=fill;fontSize=12;fontFamily=Helvetica;html=1;rounded=0;shadow=0;comic=0;labelBackgroundColor=none;strokeWidth=1" vertex="1" parent="1">
          <mxGeometry x="1302" y="244.75" width="435" height="166" as="geometry" />
        </mxCell>
        <mxCell id="fKr8kIdKR8H5jGHbH5O1-45" value="&lt;b&gt;Microsoft.AspNetCore.Identity.EntityFrameworkCore&lt;/b&gt;" style="html=1;rounded=0;shadow=0;comic=0;labelBackgroundColor=none;strokeWidth=1;fontFamily=Verdana;fontSize=10;align=center;" vertex="1" parent="1">
          <mxGeometry x="1355.5" y="166.75" width="328" height="40" as="geometry" />
        </mxCell>
        <mxCell id="fKr8kIdKR8H5jGHbH5O1-48" value="&lt;p style=&quot;margin:0px;margin-top:4px;text-align:center;&quot;&gt;&lt;b&gt;SeedData&lt;/b&gt;&lt;/p&gt;&lt;hr size=&quot;1&quot;&gt;&lt;p style=&quot;margin:0px;margin-left:4px;&quot;&gt;&lt;br&gt;&lt;/p&gt;&lt;hr size=&quot;1&quot;&gt;&lt;p style=&quot;margin:0px;margin-left:4px;&quot;&gt;&amp;nbsp; &amp;nbsp; + {static} &amp;lt;&amp;lt;async&amp;gt;&amp;gt; Initialize(serviceProvider:IServiceProvider) : Task&lt;br&gt;&lt;/p&gt;" style="verticalAlign=top;align=left;overflow=fill;fontSize=12;fontFamily=Helvetica;html=1;rounded=0;shadow=0;comic=0;labelBackgroundColor=none;strokeWidth=1" vertex="1" parent="1">
          <mxGeometry x="1785" y="244.75" width="435" height="79" as="geometry" />
        </mxCell>
        <mxCell id="fKr8kIdKR8H5jGHbH5O1-52" style="edgeStyle=orthogonalEdgeStyle;rounded=0;orthogonalLoop=1;jettySize=auto;html=1;" edge="1" parent="1" source="fKr8kIdKR8H5jGHbH5O1-49" target="fKr8kIdKR8H5jGHbH5O1-50">
          <mxGeometry relative="1" as="geometry" />
        </mxCell>
        <mxCell id="fKr8kIdKR8H5jGHbH5O1-49" value="&lt;p style=&quot;margin:0px;margin-top:4px;text-align:center;&quot;&gt;&lt;b style=&quot;background-color: initial;&quot;&gt;ActivityLogger&lt;/b&gt;&lt;br&gt;&lt;/p&gt;&lt;hr size=&quot;1&quot;&gt;&lt;p style=&quot;margin:0px;margin-left:4px;&quot;&gt;&amp;nbsp; &amp;nbsp; - &amp;lt;&amp;lt;readonly&amp;gt;&amp;gt; _activityLogRepository : IActivityLogRepository&lt;br&gt;&lt;/p&gt;&lt;hr size=&quot;1&quot;&gt;&lt;p style=&quot;margin:0px;margin-left:4px;&quot;&gt;&amp;nbsp; &amp;nbsp; + ActivityLogger(activityLogRepository:IActivityLogRepository)&lt;/p&gt;&lt;p style=&quot;margin:0px;margin-left:4px;&quot;&gt;&amp;nbsp; &amp;nbsp; + &amp;lt;&amp;lt;async&amp;gt;&amp;gt; UpdateAsync(log:ActivityLog) : Task&lt;/p&gt;" style="verticalAlign=top;align=left;overflow=fill;fontSize=12;fontFamily=Helvetica;html=1;rounded=0;shadow=0;comic=0;labelBackgroundColor=none;strokeWidth=1" vertex="1" parent="1">
          <mxGeometry x="21" y="1681" width="450" height="92" as="geometry" />
        </mxCell>
        <mxCell id="fKr8kIdKR8H5jGHbH5O1-50" value="&lt;p style=&quot;margin:0px;margin-top:4px;text-align:center;&quot;&gt;&lt;b style=&quot;background-color: initial;&quot;&gt;ActivityNotifier&lt;/b&gt;&lt;br&gt;&lt;/p&gt;&lt;hr size=&quot;1&quot;&gt;&lt;p style=&quot;margin:0px;margin-left:4px;&quot;&gt;&amp;nbsp; &amp;nbsp; - &amp;lt;&amp;lt;readonly&amp;gt;&amp;gt; _observers : List&amp;lt;IActivityObserver&amp;gt;&lt;br&gt;&lt;/p&gt;&lt;hr size=&quot;1&quot;&gt;&lt;p style=&quot;margin:0px;margin-left:4px;&quot;&gt;&amp;nbsp; &amp;nbsp; + Attach(observer:IActivityObserver) : void&lt;/p&gt;&lt;p style=&quot;margin:0px;margin-left:4px;&quot;&gt;&amp;nbsp; &amp;nbsp; + Detach(observer:IActivityObserver) : void&lt;/p&gt;&lt;p style=&quot;margin:0px;margin-left:4px;&quot;&gt;&amp;nbsp; &amp;nbsp; + &amp;lt;&amp;lt;async&amp;gt;&amp;gt; NotifyAsync(log:ActivityLog) : Task&lt;/p&gt;" style="verticalAlign=top;align=left;overflow=fill;fontSize=12;fontFamily=Helvetica;html=1;rounded=0;shadow=0;comic=0;labelBackgroundColor=none;strokeWidth=1" vertex="1" parent="1">
          <mxGeometry x="21" y="1517" width="450" height="110" as="geometry" />
        </mxCell>
        <mxCell id="fKr8kIdKR8H5jGHbH5O1-53" style="edgeStyle=orthogonalEdgeStyle;rounded=0;orthogonalLoop=1;jettySize=auto;html=1;startArrow=classic;startFill=1;endArrow=diamond;endFill=0;" edge="1" parent="1" source="fKr8kIdKR8H5jGHbH5O1-51" target="fKr8kIdKR8H5jGHbH5O1-50">
          <mxGeometry relative="1" as="geometry" />
        </mxCell>
        <mxCell id="fKr8kIdKR8H5jGHbH5O1-51" value="&lt;p style=&quot;margin: 4px 0px 0px; text-align: center;&quot;&gt;&lt;b style=&quot;background-color: initial;&quot;&gt;IActivityObserver&lt;/b&gt;&lt;br&gt;&lt;/p&gt;&lt;hr size=&quot;1&quot;&gt;&lt;p style=&quot;margin:0px;margin-left:4px;&quot;&gt;&amp;nbsp;&amp;nbsp;&lt;br&gt;&lt;/p&gt;&lt;hr size=&quot;1&quot;&gt;&lt;p style=&quot;margin:0px;margin-left:4px;&quot;&gt;&amp;nbsp; &amp;nbsp; UpdateAsync(log:ActivityLog) : Task&lt;/p&gt;" style="verticalAlign=top;align=left;overflow=fill;fontSize=12;fontFamily=Helvetica;html=1;rounded=0;shadow=0;comic=0;labelBackgroundColor=none;strokeWidth=1" vertex="1" parent="1">
          <mxGeometry x="512" y="1533" width="252" height="78" as="geometry" />
        </mxCell>
        <mxCell id="fKr8kIdKR8H5jGHbH5O1-61" value="&lt;p style=&quot;margin:0px;margin-top:4px;text-align:center;&quot;&gt;&lt;b&gt;ILearningStrategy&lt;/b&gt;&lt;/p&gt;&lt;hr size=&quot;1&quot;&gt;&lt;p style=&quot;margin:0px;margin-left:4px;&quot;&gt;&amp;nbsp;&amp;nbsp;&lt;br&gt;&lt;/p&gt;&lt;hr size=&quot;1&quot;&gt;&lt;p style=&quot;margin:0px;margin-left:4px;&quot;&gt;EvaluateAnswer(userId:string, wordId:int, userAnswer:string) : Task&amp;lt;LearningResult&amp;gt;&lt;br&gt;&lt;/p&gt;" style="verticalAlign=top;align=left;overflow=fill;fontSize=12;fontFamily=Helvetica;html=1;rounded=0;shadow=0;comic=0;labelBackgroundColor=none;strokeWidth=1" vertex="1" parent="1">
          <mxGeometry x="2519" y="1062" width="461" height="91" as="geometry" />
        </mxCell>
        <mxCell id="fKr8kIdKR8H5jGHbH5O1-62" value="&lt;p style=&quot;margin:0px;margin-top:4px;text-align:center;&quot;&gt;&lt;b&gt;LearningStrategies&lt;/b&gt;&lt;/p&gt;&lt;hr size=&quot;1&quot;&gt;&lt;p style=&quot;margin:0px;margin-left:4px;&quot;&gt;&amp;nbsp; &amp;nbsp; &amp;nbsp;- &amp;lt;&amp;lt;readonly&amp;gt;&amp;gt; _serviceProvider : IServiceProvider&lt;br&gt;&lt;/p&gt;&lt;hr size=&quot;1&quot;&gt;&lt;p style=&quot;margin:0px;margin-left:4px;&quot;&gt;&amp;nbsp; &amp;nbsp; + LearningStrategies(serviceProvider:IServiceProvider)&lt;/p&gt;&lt;p style=&quot;margin:0px;margin-left:4px;&quot;&gt;&amp;nbsp; &amp;nbsp; + GetStrategy(mode:LearningMode) : ILearningStrategy&lt;/p&gt;" style="verticalAlign=top;align=left;overflow=fill;fontSize=12;fontFamily=Helvetica;html=1;rounded=0;shadow=0;comic=0;labelBackgroundColor=none;strokeWidth=1" vertex="1" parent="1">
          <mxGeometry x="3187" y="1248" width="327" height="101" as="geometry" />
        </mxCell>
        <mxCell id="fKr8kIdKR8H5jGHbH5O1-63" value="&lt;p style=&quot;margin:0px;margin-top:4px;text-align:center;&quot;&gt;&lt;b&gt;ILearningStrategies&lt;/b&gt;&lt;/p&gt;&lt;hr size=&quot;1&quot;&gt;&lt;p style=&quot;margin:0px;margin-left:4px;&quot;&gt;&amp;nbsp;&amp;nbsp;&lt;br&gt;&lt;/p&gt;&lt;hr size=&quot;1&quot;&gt;&lt;p style=&quot;margin:0px;margin-left:4px;&quot;&gt;&amp;nbsp;&amp;nbsp;&lt;span style=&quot;background-color: initial;&quot;&gt;GetStrategy(mode:LearningMode) : ILearningStrategy&lt;/span&gt;&lt;/p&gt;" style="verticalAlign=top;align=left;overflow=fill;fontSize=12;fontFamily=Helvetica;html=1;rounded=0;shadow=0;comic=0;labelBackgroundColor=none;strokeWidth=1" vertex="1" parent="1">
          <mxGeometry x="3196" y="1123" width="315" height="91" as="geometry" />
        </mxCell>
        <mxCell id="fKr8kIdKR8H5jGHbH5O1-69" style="edgeStyle=orthogonalEdgeStyle;rounded=0;orthogonalLoop=1;jettySize=auto;html=1;entryX=0;entryY=0.5;entryDx=0;entryDy=0;" edge="1" parent="1" source="fKr8kIdKR8H5jGHbH5O1-64" target="fKr8kIdKR8H5jGHbH5O1-61">
          <mxGeometry relative="1" as="geometry">
            <Array as="points">
              <mxPoint x="2747" y="1161" />
              <mxPoint x="2455" y="1161" />
              <mxPoint x="2455" y="1107" />
            </Array>
          </mxGeometry>
        </mxCell>
        <mxCell id="fKr8kIdKR8H5jGHbH5O1-64" value="&lt;p style=&quot;margin:0px;margin-top:4px;text-align:center;&quot;&gt;&lt;b&gt;MultipleChoiceStrategy&lt;/b&gt;&lt;/p&gt;&lt;hr size=&quot;1&quot;&gt;&lt;p style=&quot;margin:0px;margin-left:4px;&quot;&gt;&amp;nbsp; &amp;nbsp; &amp;nbsp;&lt;span style=&quot;background-color: initial;&quot;&gt;- &amp;lt;&amp;lt;readonly&amp;gt;&amp;gt; _notifier : ActivityNotifier&lt;/span&gt;&lt;br&gt;&lt;/p&gt;&lt;p style=&quot;margin:0px;margin-left:4px;&quot;&gt;&amp;nbsp; &amp;nbsp; &amp;nbsp;- &amp;lt;&amp;lt;readonly&amp;gt;&amp;gt; _wordRepository : IWordRepository&lt;/p&gt;&lt;hr size=&quot;1&quot;&gt;&lt;p style=&quot;margin:0px;margin-left:4px;&quot;&gt;&amp;nbsp; &amp;nbsp;&amp;nbsp;&lt;span style=&quot;background-color: initial;&quot;&gt;+ MultipleChoiceStrategy(notifier:ActivityNotifier, wordRepository:IWordRepository)&lt;/span&gt;&lt;/p&gt;&lt;p style=&quot;margin:0px;margin-left:4px;&quot;&gt;&amp;nbsp; &amp;nbsp; + &amp;lt;&amp;lt;async&amp;gt;&amp;gt; EvaluateAnswer(userId:string, wordId:int, userAnswer:string) : Task&amp;lt;LearningResult&amp;gt;&lt;/p&gt;" style="verticalAlign=top;align=left;overflow=fill;fontSize=12;fontFamily=Helvetica;html=1;rounded=0;shadow=0;comic=0;labelBackgroundColor=none;strokeWidth=1" vertex="1" parent="1">
          <mxGeometry x="2471.5" y="1181" width="551" height="112" as="geometry" />
        </mxCell>
        <mxCell id="fKr8kIdKR8H5jGHbH5O1-70" style="edgeStyle=orthogonalEdgeStyle;rounded=0;orthogonalLoop=1;jettySize=auto;html=1;entryX=0;entryY=0.5;entryDx=0;entryDy=0;" edge="1" parent="1" source="fKr8kIdKR8H5jGHbH5O1-65" target="fKr8kIdKR8H5jGHbH5O1-61">
          <mxGeometry relative="1" as="geometry">
            <Array as="points">
              <mxPoint x="2455" y="1372" />
              <mxPoint x="2455" y="1107" />
            </Array>
          </mxGeometry>
        </mxCell>
        <mxCell id="fKr8kIdKR8H5jGHbH5O1-65" value="&lt;p style=&quot;margin:0px;margin-top:4px;text-align:center;&quot;&gt;&lt;b&gt;FillinTheBlankStrategy&lt;/b&gt;&lt;/p&gt;&lt;hr size=&quot;1&quot;&gt;&lt;p style=&quot;margin:0px;margin-left:4px;&quot;&gt;&amp;nbsp; &amp;nbsp;&amp;nbsp;&lt;span style=&quot;background-color: initial;&quot;&gt;- &amp;lt;&amp;lt;readonly&amp;gt;&amp;gt; _notifier : ActivityNotifier&lt;/span&gt;&lt;br&gt;&lt;/p&gt;&lt;p style=&quot;margin:0px;margin-left:4px;&quot;&gt;&amp;nbsp; &amp;nbsp; - &amp;lt;&amp;lt;readonly&amp;gt;&amp;gt; _wordRepository : IWordRepository&lt;/p&gt;&lt;hr size=&quot;1&quot;&gt;&lt;p style=&quot;margin:0px;margin-left:4px;&quot;&gt;&amp;nbsp; &amp;nbsp;&amp;nbsp;&lt;span style=&quot;background-color: initial;&quot;&gt;+ FillInTheBlankStrategy(notifier:ActivityNotifier, wordRepository:IWordRepository)&lt;/span&gt;&lt;/p&gt;&lt;p style=&quot;margin:0px;margin-left:4px;&quot;&gt;&amp;nbsp; &amp;nbsp; + &amp;lt;&amp;lt;async&amp;gt;&amp;gt; EvaluateAnswer(userId:string, wordId:int, userAnswer:string) : Task&amp;lt;LearningResult&amp;gt;&lt;/p&gt;" style="verticalAlign=top;align=left;overflow=fill;fontSize=12;fontFamily=Helvetica;html=1;rounded=0;shadow=0;comic=0;labelBackgroundColor=none;strokeWidth=1" vertex="1" parent="1">
          <mxGeometry x="2474.68" y="1314" width="549.63" height="116" as="geometry" />
        </mxCell>
        <mxCell id="fKr8kIdKR8H5jGHbH5O1-71" style="edgeStyle=orthogonalEdgeStyle;rounded=0;orthogonalLoop=1;jettySize=auto;html=1;entryX=0;entryY=0.5;entryDx=0;entryDy=0;" edge="1" parent="1" source="fKr8kIdKR8H5jGHbH5O1-66" target="fKr8kIdKR8H5jGHbH5O1-61">
          <mxGeometry relative="1" as="geometry">
            <Array as="points">
              <mxPoint x="2455" y="1511" />
              <mxPoint x="2455" y="1107" />
            </Array>
          </mxGeometry>
        </mxCell>
        <mxCell id="fKr8kIdKR8H5jGHbH5O1-66" value="&lt;p style=&quot;margin:0px;margin-top:4px;text-align:center;&quot;&gt;&lt;b&gt;MultipleChoiceStrategy&lt;/b&gt;&lt;/p&gt;&lt;hr size=&quot;1&quot;&gt;&lt;p style=&quot;margin:0px;margin-left:4px;&quot;&gt;&amp;nbsp; &amp;nbsp;&amp;nbsp;&lt;span style=&quot;background-color: initial;&quot;&gt;- &amp;lt;&amp;lt;readonly&amp;gt;&amp;gt; _notifier : ActivityNotifier&lt;/span&gt;&lt;br&gt;&lt;/p&gt;&lt;p style=&quot;margin:0px;margin-left:4px;&quot;&gt;&amp;nbsp; &amp;nbsp; - &amp;lt;&amp;lt;readonly&amp;gt;&amp;gt; _wordRepository : IWordRepository&lt;/p&gt;&lt;hr size=&quot;1&quot;&gt;&lt;p style=&quot;margin:0px;margin-left:4px;&quot;&gt;&amp;nbsp; &amp;nbsp;&amp;nbsp;&lt;span style=&quot;background-color: initial;&quot;&gt;+ MultipleChoiceStrategy(notifier:ActivityNotifier, wordRepository:IWordRepository)&lt;/span&gt;&lt;/p&gt;&lt;p style=&quot;margin:0px;margin-left:4px;&quot;&gt;&amp;nbsp; &amp;nbsp; + &amp;lt;&amp;lt;async&amp;gt;&amp;gt; EvaluateAnswer(userId:string, wordId:int, userAnswer:string) : Task&amp;lt;LearningResult&amp;gt;&lt;/p&gt;" style="verticalAlign=top;align=left;overflow=fill;fontSize=12;fontFamily=Helvetica;html=1;rounded=0;shadow=0;comic=0;labelBackgroundColor=none;strokeWidth=1" vertex="1" parent="1">
          <mxGeometry x="2470.49" y="1453" width="558" height="116" as="geometry" />
        </mxCell>
        <mxCell id="fKr8kIdKR8H5jGHbH5O1-73" value="&lt;p style=&quot;margin:0px;margin-top:4px;text-align:center;&quot;&gt;&lt;b&gt;ILearningFacade&lt;/b&gt;&lt;/p&gt;&lt;hr size=&quot;1&quot;&gt;&lt;p style=&quot;margin:0px;margin-left:4px;&quot;&gt;&amp;nbsp;&amp;nbsp;&lt;br&gt;&lt;/p&gt;&lt;hr size=&quot;1&quot;&gt;&lt;p style=&quot;margin:0px;margin-left:4px;&quot;&gt;&amp;nbsp; &amp;nbsp; GetGroupsWithLanguageAsync(userId:string, languageId:int) : Task&amp;lt;IEnumerable&amp;lt;Group&amp;gt;&amp;gt;&lt;/p&gt;&lt;p style=&quot;margin:0px;margin-left:4px;&quot;&gt;&amp;nbsp; &amp;nbsp; EvaluateAnswerAsync(userId:string, wordId:int, userAnswer:string, mode:LearningMode) : Task&amp;lt;LearningResult&amp;gt;&lt;/p&gt;&lt;p style=&quot;margin:0px;margin-left:4px;&quot;&gt;&amp;nbsp; &amp;nbsp; GetWordsToRepeatAsync(userId:string, languageId:int) : Task&amp;lt;IEnumerable&amp;lt;Word&amp;gt;&amp;gt;&lt;/p&gt;&lt;p style=&quot;margin:0px;margin-left:4px;&quot;&gt;&amp;nbsp; &amp;nbsp; GetAllWordsAsync(languageId:int) : Task&amp;lt;IEnumerable&amp;lt;Word&amp;gt;&amp;gt;&lt;/p&gt;&lt;p style=&quot;margin:0px;margin-left:4px;&quot;&gt;&amp;nbsp; &amp;nbsp; GetGroupWordsAsync(groupId:int) : Task&amp;lt;IEnumerable&amp;lt;Word&amp;gt;&amp;gt;&lt;/p&gt;&lt;p style=&quot;margin:0px;margin-left:4px;&quot;&gt;&amp;nbsp; &amp;nbsp; GetMultipleChoiceOptionsAsync(wordId:int) : Task&amp;lt;List&amp;lt;string&amp;gt;&amp;gt;&lt;/p&gt;" style="verticalAlign=top;align=left;overflow=fill;fontSize=12;fontFamily=Helvetica;html=1;rounded=0;shadow=0;comic=0;labelBackgroundColor=none;strokeWidth=1" vertex="1" parent="1">
          <mxGeometry x="2694" y="1771.5" width="638" height="176" as="geometry" />
        </mxCell>
        <mxCell id="fKr8kIdKR8H5jGHbH5O1-75" style="edgeStyle=orthogonalEdgeStyle;rounded=0;orthogonalLoop=1;jettySize=auto;html=1;" edge="1" parent="1" source="fKr8kIdKR8H5jGHbH5O1-74" target="fKr8kIdKR8H5jGHbH5O1-73">
          <mxGeometry relative="1" as="geometry" />
        </mxCell>
        <mxCell id="fKr8kIdKR8H5jGHbH5O1-74" value="&lt;p style=&quot;margin:0px;margin-top:4px;text-align:center;&quot;&gt;&lt;b&gt;LearningFacade&lt;/b&gt;&lt;/p&gt;&lt;hr size=&quot;1&quot;&gt;&lt;p style=&quot;margin:0px;margin-left:4px;&quot;&gt;&amp;nbsp; &amp;nbsp; - &amp;lt;&amp;lt;readonly&amp;gt;&amp;gt; _groupRepository : IGroupRepository&lt;/p&gt;&lt;p style=&quot;margin:0px;margin-left:4px;&quot;&gt;&amp;nbsp; &amp;nbsp; - &amp;lt;&amp;lt;readonly&amp;gt;&amp;gt; _wordRepository : IWordRepository&lt;/p&gt;&lt;p style=&quot;margin:0px;margin-left:4px;&quot;&gt;&amp;nbsp; &amp;nbsp; - &amp;lt;&amp;lt;readonly&amp;gt;&amp;gt; _learningStrategies : ILearningStrategies&lt;/p&gt;&lt;p style=&quot;margin:0px;margin-left:4px;&quot;&gt;&amp;nbsp; &amp;nbsp; - &amp;lt;&amp;lt;readonly&amp;gt;&amp;gt; _repeatableWordsService : RepeatableWordsService&lt;/p&gt;&lt;p style=&quot;margin:0px;margin-left:4px;&quot;&gt;&amp;nbsp; &amp;nbsp; - &amp;lt;&amp;lt;readonly&amp;gt;&amp;gt; _activityLogRepository : IActivityLogRepository&lt;/p&gt;&lt;hr size=&quot;1&quot;&gt;&lt;p style=&quot;margin:0px;margin-left:4px;&quot;&gt;&amp;nbsp; &amp;nbsp;+ LearningFacade(groupRepository:IGroupRepository, wordRepository:IWordRepository, learningStrategies:ILearningStrategies,&amp;nbsp;&lt;/p&gt;&lt;p style=&quot;margin:0px;margin-left:4px;&quot;&gt;&amp;nbsp; &amp;nbsp; &amp;nbsp; repeatableWordsService:RepeatableWordsService, activityLogRepository:IActivityLogRepository)&amp;nbsp; &amp;nbsp;&amp;nbsp;&lt;/p&gt;&lt;p style=&quot;margin:0px;margin-left:4px;&quot;&gt;&amp;nbsp; &amp;nbsp; + &amp;lt;&amp;lt;async&amp;gt;&amp;gt; GetGroupsWithLanguageAsync(userId:string, languageId:int) : Task&amp;lt;IEnumerable&amp;lt;Group&amp;gt;&amp;gt;&lt;/p&gt;&lt;p style=&quot;margin:0px;margin-left:4px;&quot;&gt;&amp;nbsp; &amp;nbsp; + &amp;lt;&amp;lt;async&amp;gt;&amp;gt; EvaluateAnswerAsync(userId:string, wordId:int, userAnswer:string, mode:LearningMode) : Task&amp;lt;LearningResult&amp;gt;&lt;/p&gt;&lt;p style=&quot;margin:0px;margin-left:4px;&quot;&gt;&amp;nbsp; &amp;nbsp; + &amp;lt;&amp;lt;async&amp;gt;&amp;gt; GetWordsToRepeatAsync(userId:string, languageId:int) : Task&amp;lt;IEnumerable&amp;lt;Word&amp;gt;&amp;gt;&lt;/p&gt;&lt;p style=&quot;margin:0px;margin-left:4px;&quot;&gt;&amp;nbsp; &amp;nbsp; + &amp;lt;&amp;lt;async&amp;gt;&amp;gt; GetAllWordsAsync(languageId:int) : Task&amp;lt;IEnumerable&amp;lt;Word&amp;gt;&amp;gt;&lt;/p&gt;&lt;p style=&quot;margin:0px;margin-left:4px;&quot;&gt;&amp;nbsp; &amp;nbsp; + &amp;lt;&amp;lt;async&amp;gt;&amp;gt; GetGroupWordsAsync(groupId:int) : Task&amp;lt;IEnumerable&amp;lt;Word&amp;gt;&amp;gt;&lt;/p&gt;&lt;p style=&quot;margin:0px;margin-left:4px;&quot;&gt;&amp;nbsp; &amp;nbsp; + &amp;lt;&amp;lt;async&amp;gt;&amp;gt; GetMultipleChoiceOptionsAsync(wordId:int) : Task&amp;lt;List&amp;lt;string&amp;gt;&amp;gt;&lt;/p&gt;" style="verticalAlign=top;align=left;overflow=fill;fontSize=12;fontFamily=Helvetica;html=1;rounded=0;shadow=0;comic=0;labelBackgroundColor=none;strokeWidth=1" vertex="1" parent="1">
          <mxGeometry x="2663" y="1979" width="700" height="237" as="geometry" />
        </mxCell>
        <mxCell id="fKr8kIdKR8H5jGHbH5O1-76" value="&lt;p style=&quot;margin:0px;margin-top:4px;text-align:center;&quot;&gt;&lt;b&gt;DailyChallengeService&lt;/b&gt;&lt;/p&gt;&lt;hr size=&quot;1&quot;&gt;&lt;p style=&quot;margin:0px;margin-left:4px;&quot;&gt;&amp;nbsp; &amp;nbsp;&amp;nbsp;&lt;span style=&quot;background-color: initial;&quot;&gt;- &amp;lt;&amp;lt;readonly&amp;gt;&amp;gt; _dailyChallengeRepository : IDailyChallengeRepository&lt;/span&gt;&lt;br&gt;&lt;/p&gt;&lt;p style=&quot;margin:0px;margin-left:4px;&quot;&gt;&amp;nbsp; &amp;nbsp; - &amp;lt;&amp;lt;readonly&amp;gt;&amp;gt; _wordRepository : IWordRepository&lt;/p&gt;&lt;hr size=&quot;1&quot;&gt;&lt;p style=&quot;margin:0px;margin-left:4px;&quot;&gt;&amp;nbsp; &amp;nbsp;&amp;nbsp;&lt;span style=&quot;background-color: initial;&quot;&gt;+ DailyChallengeService(dailyChallengeRepository:IDailyChallengeRepository, wordRepository:IWordRepository)&lt;/span&gt;&lt;/p&gt;&lt;p style=&quot;margin:0px;margin-left:4px;&quot;&gt;&amp;nbsp; &amp;nbsp; + &amp;lt;&amp;lt;async&amp;gt;&amp;gt; GetOrCreateDailyChallengeAsync(userId:string, languageId:int) : Task&amp;lt;DailyChallenge?&amp;gt;&lt;/p&gt;&lt;p style=&quot;margin:0px;margin-left:4px;&quot;&gt;&amp;nbsp; &amp;nbsp; + &amp;lt;&amp;lt;async&amp;gt;&amp;gt; CompleteChallengeAsync(challengeId:int) : Task&lt;/p&gt;" style="verticalAlign=top;align=left;overflow=fill;fontSize=12;fontFamily=Helvetica;html=1;rounded=0;shadow=0;comic=0;labelBackgroundColor=none;strokeWidth=1" vertex="1" parent="1">
          <mxGeometry x="2698" y="2291" width="630" height="133" as="geometry" />
        </mxCell>
        <mxCell id="fKr8kIdKR8H5jGHbH5O1-78" style="edgeStyle=orthogonalEdgeStyle;rounded=0;orthogonalLoop=1;jettySize=auto;html=1;" edge="1" parent="1" source="fKr8kIdKR8H5jGHbH5O1-77" target="fKr8kIdKR8H5jGHbH5O1-76">
          <mxGeometry relative="1" as="geometry" />
        </mxCell>
        <mxCell id="fKr8kIdKR8H5jGHbH5O1-77" value="&lt;p style=&quot;margin:0px;margin-top:4px;text-align:center;&quot;&gt;&lt;b&gt;IDailyChallengeService&lt;/b&gt;&lt;/p&gt;&lt;hr size=&quot;1&quot;&gt;&lt;p style=&quot;margin:0px;margin-left:4px;&quot;&gt;&amp;nbsp;&amp;nbsp;&lt;br&gt;&lt;/p&gt;&lt;hr size=&quot;1&quot;&gt;&lt;p style=&quot;margin:0px;margin-left:4px;&quot;&gt;&amp;nbsp; &amp;nbsp;&amp;nbsp;&lt;span style=&quot;background-color: initial;&quot;&gt;GetOrCreateDailyChallengeAsync(userId:string, languageId:int) : Task&amp;lt;DailyChallenge?&amp;gt;&lt;/span&gt;&lt;/p&gt;&lt;p style=&quot;margin:0px;margin-left:4px;&quot;&gt;&amp;nbsp; &amp;nbsp; CompleteChallengeAsync(challengeId:int) : Task&lt;/p&gt;" style="verticalAlign=top;align=left;overflow=fill;fontSize=12;fontFamily=Helvetica;html=1;rounded=0;shadow=0;comic=0;labelBackgroundColor=none;strokeWidth=1" vertex="1" parent="1">
          <mxGeometry x="2740.5" y="2454" width="545" height="103.5" as="geometry" />
        </mxCell>
      </root>
    </mxGraphModel>
  </diagram>
</mxfile>
